<svg version="1.1" id="Layer_1" xmlns="http://www.w3.org/2000/svg" xmlns:xlink="http://www.w3.org/1999/xlink" x="0px" y="0px" viewBox="0 0 512 512" style="enable-background:new 0 0 512 512;" xml:space="preserve"><g><path d="M321.83,341.33l21.63,59.17c7.25,19.88,31.29,30.79,53.75,24.29c22.38-6.38,34.67-27.75,27.42-47.63l-87.46-239.37c-8.42-23.13-28.79-41.25-54.83-48.71c-44.79-12.92-92.96,8.92-107.5,48.67L87.5,377.13c-7.25,19.92,5,41.25,27.42,47.71c22.42,6.42,46.5-4.46,53.75-24.33l21.54-59.17H321.83z M290.71,256h-69.33L256,161.13L290.71,256z M85.33,0h341.33C473.83,0,512,38.21,512,85.33v341.33c0,47.17-38.17,85.33-85.33,85.33H85.33C38.21,512,0,473.83,0,426.67V85.33C0,38.21,38.21,0,85.33,0z"/></g></svg>
