<?xml version="1.0" encoding="utf-8"?>
<!-- Generator: Adobe Illustrator 27.0.0, SVG Export Plug-In . SVG Version: 6.00 Build 0)  -->
<svg version="1.1" id="Calque_1" xmlns="http://www.w3.org/2000/svg" xmlns:xlink="http://www.w3.org/1999/xlink" x="0px" y="0px"
	 viewBox="0 0 24 24" style="enable-background:new 0 0 24 24;" xml:space="preserve">
<style type="text/css">
	.st0{fill:none;}
	.st1{enable-background:new    ;}
</style>
<rect x="2" y="5.9" class="st0" width="27.6" height="20.1"/>
<g class="st1">
	<path d="M3.3,5v5.6h5.9V5h2.6v14H9.2v-6.2H3.3V19H0.7V5H3.3z"/>
	<path d="M14.1,19v-1.6l1.6-1.5c3.2-2.9,4.7-4.6,4.7-6.4c0-1.2-0.6-2.3-2.4-2.3c-1.2,0-2.2,0.6-2.9,1.1l-0.7-1.8
		c1-0.8,2.5-1.4,4.2-1.4c3,0,4.4,1.9,4.4,4.1c0,2.4-1.7,4.3-4.1,6.5l-1.2,1v0h5.5V19H14.1z"/>
</g>
</svg>
