<?xml version="1.0" encoding="utf-8"?>
<!-- Generator: Adobe Illustrator 27.0.0, SVG Export Plug-In . SVG Version: 6.00 Build 0)  -->
<svg version="1.1" id="Calque_1" xmlns="http://www.w3.org/2000/svg" xmlns:xlink="http://www.w3.org/1999/xlink" x="0px" y="0px"
	 viewBox="0 0 24 24" style="enable-background:new 0 0 24 24;" xml:space="preserve">
<style type="text/css">
	.st0{fill:none;}
	.st1{enable-background:new    ;}
</style>
<rect x="2" y="5.9" class="st0" width="27.6" height="20.1"/>
<g class="st1">
	<path d="M3.1,5v5.5h6.1V5h2.6v13.8H9.2v-6.1H3.1v6.1H0.5V5H3.1z"/>
	<path d="M14.8,16.2c0.5,0.3,1.8,0.8,3.2,0.8c2,0,2.8-1.1,2.8-2.1c0-1.6-1.5-2.2-3.2-2.2h-1.2v-1.8h1.2c1.2,0,2.8-0.5,2.8-1.9
		c0-0.9-0.7-1.7-2.2-1.7c-1.1,0-2.3,0.5-2.9,0.8l-0.6-1.8c0.8-0.5,2.3-1,4-1c2.9,0,4.4,1.5,4.4,3.2c0,1.4-0.9,2.5-2.6,3.1v0
		c1.7,0.3,3.1,1.5,3.1,3.3c0,2.2-2,4-5.4,4c-1.7,0-3.2-0.5-3.9-0.9L14.8,16.2z"/>
</g>
</svg>
