<svg xmlns="http://www.w3.org/2000/svg" viewBox="0 0 24 24"><path fill-rule="evenodd" d="M19,15.5 C19,14.6715729 19.6715729,14 20.5,14 C21.3284271,14 22,14.6715729 22,15.5 C22,16.3284271 21.3284271,17 20.5,17 C19.6715729,17 19,16.3284271 19,15.5 Z M14,15.5 C14,14.6715729 14.6715729,14 15.5,14 C16.3284271,14 17,14.6715729 17,15.5 C17,16.3284271 16.3284271,17 15.5,17 C14.6715729,17 14,16.3284271 14,15.5 Z M9,15.5 C9,14.6715729 9.67157288,14 10.5,14 C11.3284271,14 12,14.6715729 12,15.5 C12,16.3284271 11.3284271,17 10.5,17 C9.67157288,17 9,16.3284271 9,15.5 Z"/></svg>