<?xml version="1.0" encoding="utf-8"?>
<!-- Generator: Adobe Illustrator 27.0.0, SVG Export Plug-In . SVG Version: 6.00 Build 0)  -->
<svg version="1.1" id="Calque_1" xmlns="http://www.w3.org/2000/svg" xmlns:xlink="http://www.w3.org/1999/xlink" x="0px" y="0px"
	 viewBox="0 0 24 24" style="enable-background:new 0 0 24 24;" xml:space="preserve">
<path d="M3.6,10.7c0-3.9,3.2-7.2,7.2-7.2s7.2,3.2,7.2,7.2s-3.2,7.2-7.2,7.2S3.6,14.7,3.6,10.7z M19.5,17c1.3-1.8,2-3.9,2-6.3
	C21.5,4.8,16.7,0,10.7,0S0,4.8,0,10.7s4.8,10.7,10.7,10.7c2.3,0,4.5-0.7,6.3-2l3.9,3.9c0.7,0.7,1.8,0.7,2.5,0s0.7-1.8,0-2.5L19.5,17
	z"/>
</svg>
