<?xml version="1.0" encoding="utf-8"?>
<!-- Generator: Adobe Illustrator 24.1.1, SVG Export Plug-In . SVG Version: 6.00 Build 0)  -->
<svg version="1.1" id="Layer_1" xmlns="http://www.w3.org/2000/svg" xmlns:xlink="http://www.w3.org/1999/xlink" x="0px" y="0px"
	 viewBox="0 0 512 512" style="enable-background:new 0 0 512 512;" xml:space="preserve">
<g>
	<path d="M491.2,454.9l-0.7,0.1v-0.1H20v0.1c-11.1,0.4-20,9.5-20,20.7s8.9,20.3,20,20.7v0.1h470.5v-0.1l0.7,0.1
		c11.5,0,20.8-9.3,20.8-20.8S502.7,454.9,491.2,454.9z"/>
	<path d="M85.6,407.2h39.3c7.9,0,14.5-5.1,17-12.1l24.2-63.6h179.7l24.9,65.7l0.1,0c2.7,5.5,8.1,9.4,14.5,9.9v0.2h39.3V407l1.6,0.2
		c10,0,18-8.1,18-18c0-1.8-0.4-3.6-0.9-5.2l0.1,0l-0.4-1.1l-0.4-1l-139-353.9h-0.1c-2.4-7.2-9.1-12.4-17-12.4h-61
		c-8.1,0-14.9,5.4-17.1,12.7L68.6,383.2l0.1,0c-0.7,1.9-1.1,3.9-1.1,6C67.6,399.1,75.7,407.2,85.6,407.2z M255.8,84.2L326.3,271
		H185.4L255.8,84.2z"/>
</g>
</svg>
