<svg height="12" viewBox="0 0 12 12" width="12" xmlns="http://www.w3.org/2000/svg"><g fill="#e55a55"><path d="m6 0c-3.3137085 0-6 2.6862915-6 6s2.6862915 6 6 6 6-2.6862915 6-6-2.6862915-6-6-6zm0 1.09090909c2.71121604 0 4.9090909 2.19787487 4.9090909 4.90909091s-2.19787486 4.9090909-4.9090909 4.9090909-4.90909091-2.19787486-4.90909091-4.9090909 2.19787487-4.90909091 4.90909091-4.90909091z"/><path d="m6.05454545 3.27272727c.30770151 0 .5613043.21056738.59596337.48184303l.00403663.06361152v2.18181818c0 .30124623-.26862915.54545455-.6.54545455-.3077015 0-.56130429-.21056738-.59596336-.48184303l-.00403664-.06361152v-2.18181818c0-.30124623.26862915-.54545455.6-.54545455zm-.42426406 4.5393723c.23431457-.23431458.61421356-.23431458.84852813 0 .23431458.23431457.23431458.61421356 0 .84852814-.23431457.23431457-.61421356.23431457-.84852813 0-.23431458-.23431458-.23431458-.61421357 0-.84852814z"/></g></svg>