<svg height="623" viewBox="0 0 719 623" width="719" xmlns="http://www.w3.org/2000/svg" xmlns:xlink="http://www.w3.org/1999/xlink"><linearGradient id="a"><stop offset="0" stop-color="#808080" stop-opacity=".25"/><stop offset=".54" stop-color="#808080" stop-opacity=".12"/><stop offset="1" stop-color="#808080" stop-opacity=".1"/></linearGradient><linearGradient id="b" x1="50.001%" x2="50.001%" xlink:href="#a" y1="100.019%" y2="-.003%"/><linearGradient id="c" x1="49.98%" x2="49.98%" xlink:href="#a" y1="99.983%" y2=".001%"/><g fill="none"><path d="m508.703225 85.3225388c-35.442925 30.0843452-81.415272 28.1379822-121.701425 12.4827811-40.286153-15.6552006-77.292399-43.5173198-116.544002-63.3257847-32.906361-16.6053939-67.437349-27.50962815-102.389821-32.36021161-50.026252-6.94254126-105.8919654 1.53256981-140.7448137 50.14568431-38.8147927 54.1610171-35.83375531 151.8470171 6.1306681 201.5329301 21.3577151 25.287402 49.3212252 37.701218 73.7059576 57.471368 24.384733 19.770151 46.968581 52.536494 44.891818 90.651505-1.923498 35.249106-24.277446 62.352603-47.413055 79.341139-17.8785611 13.126461-39.8953231 27.463651-42.0487203 54.659103-2.0844271 26.30656 16.4301906 46.927287 34.1095049 58.651446 57.6742604 38.24528 128.7440304 37.877463 186.2190444-.965519 20.491759-13.862094 39.31291-32.298908 60.808565-43.0882 56.440463-28.352541 118.636092.183908 178.402443 10.628372 50.578012 8.835265 102.451128 4.252881 151.734036-13.39466 29.595801-10.597721 59.306551-26.819972 80.097179-56.980946 14.997147-21.762491 24.338753-49.310434 33.105608-76.513548 9.349269-29.00133 18.338361-58.21211 26.967277-87.632342 5.172751-17.662867 10.268869-35.6629 11.609953-54.551823 2.421613-34.237609-7.785949-68.084414-21.687239-96.973355-33.005985-68.605487-88.595818-116.8431221-148.798979-129.0960178s-123.89314 11.678182-170.585841 64.0460928" fill="#2b2c4a" opacity=".1"/><ellipse cx="375.5" cy="408" fill="#2b2c4a" opacity=".1" rx="173.5" ry="8"/><path d="m369.011518 376c-87.129784 0-158.011518-70.876567-158.011518-158s70.858698-158 158.011518-158 157.988482 70.884245 157.988482 158-70.889413 158-157.988482 158zm0-314.4643794c-86.285131 0-156.475785 70.1932164-156.475785 156.4643794s70.167618 156.464379 156.475785 156.464379 156.475785-70.193216 156.475785-156.464379-70.221369-156.4643794-156.475785-156.4643794z" fill="#fff" opacity=".6"/><path d="m369.003822 340c-67.266063 0-122.003822-54.73183-122.003822-122s54.737759-122 122.003822-122 121.996178 54.73183 121.996178 122-54.730115 122-121.996178 122zm0-242.4711779c-66.432881 0-120.475048 54.0438599-120.475048 120.4711779s54.042167 120.471178 120.475048 120.471178 120.467404-54.04386 120.467404-120.471178-54.065098-120.4711779-120.467404-120.4711779z" fill="#fff" opacity=".6"/><path d="m369.5 302c-46.668061 0-84.5-37.831939-84.5-84.5s37.831939-84.5 84.5-84.5 84.5 37.831939 84.5 84.5c-.055029 46.645249-37.854751 84.444971-84.5 84.5zm0-167.463636c-45.819551 0-82.963636 37.144085-82.963636 82.963636s37.144085 82.963636 82.963636 82.963636 82.963636-37.144085 82.963636-82.963636c-.055026-45.796739-37.166897-82.90861-82.963636-82.963636z" fill="#fff" opacity=".6"/><ellipse cx="137" cy="499.5" fill="#2b2c4a" opacity=".1" rx="64" ry="10.5"/><g fill="#000" opacity=".1" transform="translate(43 206)"><path d="m206.203486.55384615h-195.9036268c-5.6477291.0168969-10.22194859 4.62192467-10.23873244 10.30769235v124.6153845c.01678385 5.685768 4.59100334 10.290795 10.23873244 10.307692h153.6803168s3.98088 21.276923-9.100246 23.569231c0 0 29.295 2.115385 24.175633-23.569231h27.147923c5.647729-.016897 10.221948-4.621924 10.238732-10.307692v-124.6153845c-.016784-5.68576768-4.591003-10.29079545-10.238732-10.30769235z"/><g opacity=".2"><rect height="9.738" rx="4.869" width="158.7" x="28.898" y="33.631"/><rect height="9.738" rx="4.869" width="158.7" x="28.898" y="77.154"/><rect height="9.738" rx="4.869" width="133.088" x="28.898" y="98.908"/><rect height="9.738" rx="4.869" width="68.813" x="28.898" y="55.392"/></g></g><path d="m250.739645 206h-196.4716271c-5.663883.016913-10.251186 4.626452-10.2680179 10.317788v124.737436c.0168319 5.691336 4.6041349 10.300875 10.2680179 10.317788h154.1198841s3.999929 21.297762-9.126276 23.584615c0 0 29.378792 2.117457 24.244783-23.584615h27.233236c5.662632-.016933 10.247731-4.627697 10.260355-10.317788v-124.737436c-.012624-5.690091-4.597723-10.300855-10.260355-10.317788z" fill="#fff"/><g fill="#2b2c4a" opacity=".2"><rect height="9.719" rx="4.859" width="158.771" x="73.046" y="239.461"/><rect height="9.719" rx="4.859" width="158.771" x="73.046" y="282.896"/><rect height="9.719" rx="4.859" width="133.147" x="73.046" y="304.613"/><rect height="9.719" rx="4.859" width="68.844" x="73.046" y="261.178"/></g><path d="m178.307478 203.739544-10.866911 23.205612s-1.605948 4.353931-2.638343 5.160215-5.597874 14.589895-5.597874 14.589895l-11.646944 18.076111-.764737 1.228623-4.588421-1.267017-3.204248-12.032824.198832-3.493896v-.437696s7.211469-7.571388 8.809769-8.147305c0 0 1.254169.145899 3.66309-5.720774 2.408921-5.866674 4.588422-7.14137 4.588422-7.14137l1.254168-4.254106 13.505254-21.585365s11.318107-16.302288 14.399997-9.068771c3.08189 7.233516-7.112054 10.888668-7.112054 10.888668zm-45.345528 164.893028c-.036655.39191-.162103.770359-.36685 1.1067-1.253405 1.824148-8.338195 39.146674-8.338195 39.146674.56556 2.518698-1.024123 7.54083-2.063532 9.822923-1.039408 2.282093-3.316935 14.150504-3.316935 14.150504s-.565561 25.568601-2.048246 29.560356c-1.482686 3.991755.473848 12.555328.473848 12.555328-.145212 3.938328 2.224028 8.097996 3.630286 10.219809.106998.137383.191068.274767.275138.389253.458562.656388.764271 1.030377.764271 1.030377.383633.766148.928508 1.440467 1.597326 1.976796.099355.083956.206353.160281.320994.244237 1.941139 1.303323 4.115684 2.220689 6.404589 2.701876l.221639.045795c.917125.206075 1.528542.282399 1.528542.282399l.56556 3.052968-6.053025 1.251716-11.54049.763242s-13.604021 1.030377-10.516367-5.022131c.217024-.413261.403494-.84182.557918-1.282246.11464-.290032.221638-.595329.313351-.900626 1.857178-5.815903.603774-12.883522.603774-12.883522l-2.659663-20.569368c-4.3334158-19.172635 3.423933-40.520509 3.423933-40.520509s-.680201-1.709662.810128-6.044875c1.490328-4.335214 0-13.807045 0-13.807045s-.764271-12.21187-1.826608-18.264378c-.40546-2.540578-.543781-5.116534-.412706-7.685845.048852-1.507836.18666-3.011486.412706-4.503127l26.061637-3.449853s1.4674 4.213095 1.176977 6.632572z" fill="#ffd2c6"/><path d="m133 495.81659-6.145015 1.313043-11.715875.800635s-13.810767 1.080859-10.676188-5.268183c.220323-.433509.409626-.883064.566396-1.345068.116383-.304242.225007-.624496.318114-.944751 2.390535.076785 4.751359.569425 6.982971 1.457157 3.933741 1.601272 6.897625-2.522002 6.897625-2.522002l1.908679-3.762989.279319-.544432c.465531.688547.775885 1.080858.775885 1.080858.457106.925448 1.125471 1.722295 1.947474 2.321844l-.325872.70456-1.854367 4.003179s2.37421.248197 5.625171.800636c1.303768.364702 2.653771-.39901 3.05699-1.729374l.225007.048038c.931063.216172 1.551772.296236 1.551772.296236z" fill="#000" opacity=".1"/><path d="m138.910882 498.093981c-.468418 2.03203-13.482615 2.659014-13.482615 2.659014s-7.244856-.679862-9.274665.95936c-2.029808 1.639222-8.009937 1.246413-8.244146 1.246413s-3.380412-.120865-4.613911-5.589973c-1.194465-5.333136 1.608233-6.26228 1.748758-6.307604 2.519431.033414 5.012488.501546 7.36196 1.382385 3.958127 1.510804 6.940385-2.371961 6.940385-2.371961l2.201562-4.071615c.468417.649645.780695 1.019792.780695 1.019792.45623.877636 1.129326 1.632715 1.959547 2.198219l-2.193755 4.464424s2.388928.234175 5.660043.755402c2.615331.407917 3.185239-1.65433 3.302343-2.485272.007758-.113186.007758-.226745 0-.339931 0 0 2.037616.566552 4.543649 1.246413 2.342198.646836 3.781219 2.922617 3.31015 5.234934z" fill="#626696"/><path d="m162.512816 395.67969c-.305637 1.819268-.618916 6.531097-.618916 6.531097 1.069731 3.943017-1.673365 13.313391-1.673365 13.313391l-1.367728 5.328401c.611275 6.850801-3.766982 23.528696-3.766982 23.528696s-2.93412 15.482811-4.462308 22.166148c-.911938 3.708764-.644939 7.608152.764094 11.159195.076409.182688.122255.274032.122255.274032 0 .129404.053486.251196.091691.372988s.099332.365376.16046.540452c.350602.93269.868409 1.794152 1.528187 2.542408.250862.299319.524174.57923.817581.837321l.045845.045672c1.434562 1.265077 3.078907 2.272159 4.859637 2.976292l.764093.30448c.792687.29803 1.601315.552151 2.422178.7612.090476.025406.182311.045737.275073.060896l-.618916 3.577641-8.06883-2.05524-10.811927-3.493909-5.348656-3.044801s.061128-.289256.168101-.844932c0 0 0-.060896 0-.091344.045845-.235972.091691-.517616.160459-.83732.909272-4.643321 2.979966-17.812083 1.940799-27.479325-1.291319-11.988903 3.721136-28.537394 4.943686-32.480411.724015-2.252982 1.034615-4.617491.916913-6.980205-1.986644-2.89256-2.4451-14.417131-2.4451-14.417131s-3.652369-7.444537-6.67818-15.338183c-.998181-2.577822-1.727901-5.250979-2.177667-7.977377-.352347-1.922766-.500888-3.877096-.443174-5.830793 0 0 24.542691-22.310777 27.232301-.707916.091692.7612.175742 1.431056.259792 2.116136 2.353409 19.745532 1.29896 23.384069 1.008604 25.142441z" fill="#ffd2c6"/><path d="m163 487.428119-.622694 3.571881-8.118081-2.051932-10.877921-3.488283-5.381304-3.039899s.061501-.28879.169127-.843572c0 0 0-.060798 0-.091197.046125-.235592.092251-.516783.161439-.835972l.768757-.075997h.061501c1.546555-.141749 3.105463.066156 4.558733.607979 1.768143.661178 4.089791 1.413553 4.566421 1.094364.821662-.348109 1.713479-.50415 2.606088-.455985l1.130074-2.447118.161439-.372388c.350869.93208.87203 1.792476 1.537516 2.538315.267846.314035.558158.60865.868696.881571l-.046126.866371-.0615 1.223559c1.213416.768353 2.527328 1.369222 3.905289 1.785941.358413.088176.733223.088176 1.091636 0l.768757.30399c.797526.297549 1.611089.551262 2.436962.759974.103484.029409.208762.052255.315191.068398z" fill="#000" opacity=".1"/><path d="m158.871381 494.753486c-2.279668-.629541-7.774052-1.629401-8.662736-.851732-.888684.777668-8.500454 0-8.500454 0-1.627121-.027737-3.11996-.871018-3.933392-2.221911-1.545537-2.362632-.30138-10.006004-.30138-10.006004l.564121-.051844.942778-.088877h.061822c1.554706-.142097 3.122678.060639 4.582517.59251 1.777368.636947 4.111129 1.370178 4.590245 1.066517.824802-.342919 1.722183-.495143 2.619686-.444382l1.298251-2.747763c.354583.907494.878268 1.745685 1.545537 2.473727.269243.306044.56107.593162.873228.859139l-.108187 2.036751c1.220768.745168 2.541363 1.32818 3.925664 1.73309.689776.270483 1.482711.030658 1.885555-.57029.061855-.094033.108736-.196378.139099-.303661.069549.125908.819134.370318 3.222445 1.029485 2.611957-.140721 5.131183.948015 6.290336 4.340132 1.159152 3.392117-8.801834 3.777248-11.035135 3.155113z" fill="#626696"/><path d="m132.961145 368.375014c-.510353.138905-.97431.270499-1.407336.402094-1.112965.322362-2.254212.549904-3.410085.679904-7.291858.972336-19.331544.387472-23.143724.160837.049427-1.444297.188856-2.884585.417561-4.313369l26.368226-3.30448s1.469198 4.057492 1.175358 6.375014z" fill="#000" opacity=".1"/><path d="m155 361.813069s-9.451285 1.480131-17.136116 3.181519c-2.566643.564586-4.937013 1.15206-6.68837 1.731906-1.088371.329153-2.201886.566483-3.329086.709547-8.56051 1.213097-23.764094.091554-23.764094.091554-4.1745697-13.687397 5.072894-30.922532 5.072894-30.922532-.21892-1.373318 1.924982-5.584825 1.924982-5.584825l.037745-.137331 1.313517-4.882907h35.110166l.43029 2.098124.890776 4.272543 5.510733 26.451621z" fill="#626696"/><path d="m161 371.566294-.210024.091573-4.080469 1.839111c-4.418008 2.075677-17.642029 2.464866-22.262561 2.503022-.345887-1.927606-.491705-3.886856-.43505-5.845472 0 0 24.092771-22.366943 26.733075-.709698.09001.770747.17252 1.434659.255029 2.121464z" fill="#000" opacity=".1"/><path d="m162 368.240895-.883226.383799-4.214691 1.857586c-4.648556 2.118569-18.741429 2.494692-23.242781 2.51772h-1.185382c-2.084102-.069084-4.168205-2.00343-4.168205-2.510044 0-.276335-.216933-1.634983-.402875-2.801731-.154952-.936469-.294408-1.742447-.294408-1.742447s-9.297113-3.976155-14.015397-7.192389c-3.540651-2.387229-2.649677-19.351135-1.960142-27.879144.240176-2.939899.449361-4.874245.449361-4.874245l36.475671 2.110893 5.113412.291687 2.92859.644782.77476.161196s2.09185 15.152376 3.099037 16.411236.356389 5.511351.232428 7.929283c-.004707 1.032472-.118967 2.061592-.340894 3.070391 0 0 1.503033 4.25249 1.146644 6.632043-.159815 1.678749.00586 3.37229.488098 4.989384z" fill="#626696"/><circle cx="124" cy="228" fill="#ffd2c6" r="15"/><path d="m116.395308 234.051752s1.047931 13.796127-1.869072 16.960099-10.526236 9.144559-10.526236 9.144559l2.346115 9.371097 13.216448 1.472493 15.437437-15.925578-3.511352-4.175839s-2.690212-8.812305-.469223-13.214681c2.220989-4.402377-14.624117-3.63215-14.624117-3.63215z" fill="#ffd2c6"/><path d="m148 263.781726-.714924 1.218274-4.289544-1.256345-2.995532-11.931472.18588-3.464467.879357-1.347716s4.7042.121827 4.496872 4.675127c-.207328 3.997462 1.930295 10.583756 2.437891 12.106599zm9 67.09068s-3.636605.94601-7.800365 1.579659c-4.163761.633648-8.969275.954935-10.940376-.383759-3.308088-2.284705-21.231357-1.633207-26.373027-1.401167-.366717 0-.657034 0-.886232.044623l1.329347-5.711762h35.5333l.435476 2.454273 5.042352.339136 2.887892.749668c.481316 1.383318.771633 2.329329.771633 2.329329z" fill="#000" opacity=".1"/><path d="m138.405831 248s5.112814.114554 4.879707 4.681455c-.233107 4.5669 2.789514 12.44824 2.789514 12.44824l-1.165535 2.627113s-1.623979 6.392133-.349661 7.995894 5.928688 1.596124 3.255728 14.73169c0 0-.574997 9.821126.815875 13.021011 1.390871 3.199885 1.390871 10.844479 3.481064 14.044364s4.887477 10.623007 4.887477 10.623007-15.113104 3.306803-19.060383 1.023353c-3.947278-2.283451-28.237028-1.122633-28.237028-1.122633s.116553-4.001766 0-4.452346c-.214708-1.009886-.004498-2.062187.582767-2.917318.777023-1.084447 2.090193-2.90968 1.390872-4.505804s1.748302-3.955944.466214-6.430318c-1.282089-2.474374-2.836135-2.970776-2.525326-4.322518.310809-1.351741-.497295-3.184611-1.421953-4.322517-.924658-1.137907-7.210776-13.211936-7.210776-13.211936l-1.0412117-5.658985s-8.0888131-5.826998-7.9411787-8.568666c.1476345-2.741667 3.061472-6.537235 3.061472-6.537235l7.7702334-7.507129s4.296939 4.582175 8.477325 2.970777 13.201627-9.248355 13.201627-9.248355 3.216876-1.710679 3.449983-2.96314c.233107-1.25246 2.206747-.114554 2.206747-.114554s2.906067-1.565576 3.488835-1.015715c.582767.549861 3.108093 1.015715 3.108093 1.015715z" fill="#ffcde5"/><path d="m95.6225639 272-2.430588 1.92039s-2.468685 4.504049-3.0477592 12.571231c-.5790743 8.067182-3.0477592 19.481551-3.0477592 19.481551l-4.784982 8.661038s-7.8860769 16.712795-8.9070763 21.147432c-1.0209993 4.434636-5.6993097 11.938813-5.6993097 11.938813s-15.8407285 14.406784-4.784982 16.967305c11.0557466 2.56052 11.3910001-11.468356 11.3910001-11.468356s2.5829759-2.884442 3.0020428-4.843394c.4190669-1.958953 14.4311399-27.047427 14.4311399-27.047427s4.9068923-6.74836 3.8782736-10.319206c0 0 6.3774361-15.185738 6.3774361-18.99567-.120501-3.169612-.46168-6.326678-1.020999-9.447703l1.020999-7.959209z" fill="#ffd2c6"/><path d="m129 304s-11.49638 6.609714-13.72351 6.954419 9.731929-1.378819 9.731929-1.378819zm10 5s-15.274286 5.271382-22 4.310036c.031429 0 16.712143 3.236532 22-4.310036z" fill="#000" opacity=".1"/><path d="m139.933339 311s-13.797032 8.112967-21.933339 6.792766c0 0 18.984716 3.532829 21.933339 1.659471l-8.491088-2.212628s9.43717-4.661268 8.491088-6.239609zm-16.29519-108.661996c-3.88328-.763916-8.188655-.305567-11.296814 2.123685-2.30234 1.80284-3.837233 4.583492-6.423528 5.897427-1.36899.573137-2.770732 1.065443-4.197934 1.474357-5.1832964 2.107729-8.2392292 7.477596-7.3905105 12.986563.4067467 2.291746 1.4734975 4.354318 1.9953612 6.584951.9362849 3.987639.115117 8.166257-.905587 12.130978-2.8307396 11.018478-7.1281052 21.610979-12.7779864 31.496235-.450225.61157-.6751603 1.358804-.6369807 2.116046.134563.508977.3989164.97473.7674467 1.35213 5.3030562 6.111324 13.9368307 8.196813 22.0410667 8.471823 2.985368.099309 6.139573 0 8.733543-1.4438 1.690894-.967021 3.145531-2.294955 4.259329-3.88833 2.828447-3.843209 4.233107-8.542553 3.975373-13.299769-.222559-3.819577-1.534893-7.707907-.544887-11.412897.105025-.517563.342993-.999205.690702-1.397965.874889-.886142 2.30234-.656967 3.560953-.802111 3.36909-.389597 5.548639-3.926526 5.947711-7.272476.399072-3.345949-.445119-6.730095-.460468-10.098962-.018171-4.461507 1.381332-8.814497 3.998397-12.436544 1.120472-1.527831 2.555597-3.055662 2.931646-4.97309.475817-2.406334-.92861-4.178617-2.141176-6.111324-1.880244-2.963992-2.80118-6.424529-5.663756-8.685718-1.904431-1.425547-4.117269-2.388228-6.461901-2.811209z" fill="#000" opacity=".1"/><path d="m122.628364 201.337843c-3.87814-.763961-8.194011-.305585-11.304202 2.131452-2.303846 1.795309-3.839742 4.583767-6.427729 5.897781-1.366949.571842-2.767126 1.061656-4.192999 1.466805-5.1877617 2.107421-8.2482926 7.4766-7.4030231 12.987342.4070127 2.291884 1.4744611 4.354579 2.0043456 6.592986.9368971 3.987877.1075127 8.159106-.9061793 12.124065-2.8261883 11.017712-7.1185509 21.610688-12.7633039 31.498123-.4512968.607966-.6741187 1.354058-.6297177 2.108533.129574.511044.3948038.978063.7679485 1.352211 5.3142035 6.11169 13.9459445 8.197305 22.0554809 8.472331 2.987319.106954 6.143588 0 8.739254-1.436248 1.692195-.970097 3.147681-2.300627 4.262114-3.896202 2.815295-3.838178 4.2123-8.525552 3.954934-13.270007-.222705-3.819806-1.535897-7.708369-.537564-11.421221.102865-.516838.338309-.99844.683475-1.398049.875461-.886195 2.303845-.657007 3.57096-.763961 3.371294-.389621 5.544588-3.926761 5.943921-7.280551.399334-3.35379-.43773-6.722859-.460769-10.099568-.028539-4.473961 1.369558-8.841724 3.993332-12.475487 1.121205-1.527923 2.549589-3.055846 2.925884-4.981028.476128-2.406478-.921538-4.171228-2.134897-6.11169-1.881473-2.96417-2.803012-6.424914-5.675139-8.6786-1.9035-1.430824-4.118451-2.39647-6.466126-2.819017z" fill="#985c7e"/><path d="m118 345s3.005871 13.358739 8 17z" fill="#000" opacity=".1"/><path d="m13.9495946 12.5231915c-.1540541-.5287234-.3312162-1.0574468-.5160811-1.578617.1540541.5287234.3312162 1.0574468.5160811 1.578617zm42.0259459-11.82829788c.0363494.42631028.0156329.85545239-.0616216 1.27648936-.3851351 1.91095745-1.8178378 3.39893617-2.9424324 4.92468085-2.628967 3.57730847-4.0339486 7.87967947-4.0131081 12.28904257 0 3.3385106.855 6.6694681.4544594 9.9853191-.4005405 3.3158511-2.5804054 6.7978724-5.9618919 7.1981915-1.2478378.1435107-2.7036486-.0906383-3.574054.7553192-.3489883.3942726-.5878318.8704946-.6932433 1.382234-.9782432 3.6708511.3235136 7.5078724.5391892 11.2920213.2603647 4.6898838-1.1381164 9.3241467-3.9591892 13.1198936-1.1197193 1.5758838-2.5791951 2.8909919-4.275 3.8521277-2.642027 1.3973404-5.7693243 1.5106383-8.7733783 1.42-7.9954054-.2643617-16.49918922-2.2659575-21.84486489-8.0894681-.14246167.3444443-.18769424.7201539-.13094595 1.0876596.12996573.5052629.39599748.9669993.77027027 1.3369148 5.33027027 6.0425532 13.98810807 8.1045745 22.12216217 8.3764894 2.9963513.1057447 6.1621622 0 8.7656757-1.42 1.6958048-.9611358 3.1552806-2.2762439 4.275-3.8521276 2.823807-3.7947592 4.2250351-8.429109 3.9668919-13.1198937-.2233784-3.7765957-1.5405406-7.6211702-.5391892-11.2920212.1031753-.5109919.3393309-.987145.6855405-1.3822341.8781081-.8761702 2.3108108-.6495745 3.5817568-.7553191 3.3814865-.3852128 5.5613513-3.8823405 5.9618919-7.1981915.4005405-3.3158511-.4390541-6.6468085-.4621622-9.9853192-.0188553-4.407889 1.3829973-8.7089334 4.0054054-12.28904253 1.1245946-1.51063829 2.5572973-3.02127659 2.9347297-4.92468085.2430006-1.38462856-.0539548-2.8082313-.8318919-3.9880851z" fill="#000" opacity=".1" transform="translate(81 215)"/><path d="m398.429232 586.036644s-28.518471-1.692269-25.153217 17.923337c0 0-.667055 3.465473 2.53331 5.040019 0 0 .052465-1.471538 2.92305-.9565 1.022269.168894 2.061324.21829 3.095434.147154 1.400662-.094941 2.731826-.634697 3.79247-1.537758s8.012154-3.252099 11.130073-16.113344c0 0 2.30846-2.803281 2.2485-3.524335l-4.81179 2.016008s1.641405 3.406611.34477 6.239322c0 0-.1499-6.114241-1.079279-5.967088-.187375 0-2.495835 1.177231-2.495835 1.177231s2.825615 5.937657.68954 10.249265c0 0 .80946-7.313546-1.57395-9.815161l-3.38774 1.935073s3.305295 6.136315 1.06429 11.139545c0 0 .577115-7.674072-1.776314-10.661295l-3.07295 2.347103s3.110425 6.040665 1.21419 10.190403c0 0-.247335-8.932237-1.881245-9.564999 0 0-2.68321 2.317673-3.08794 3.274173 0 0 2.121085 4.414615.801965 6.702857 0 0-.80946-5.952372-1.498999-5.974446 0 0-2.675715 3.943723-2.95303 6.621923.128986-2.499226.922277-4.921747 2.300965-7.026596-1.542116.286418-2.964871 1.010344-4.09227 2.082227 0 0 .412225-2.788565 4.75183-3.031369 0 0 2.248499-2.987223 2.803129-3.171165 0 0-4.317119-.353169-6.932874.787273 0 0 2.300965-2.634053 7.727344-1.471538l2.998-2.428038s-5.68121-.73577-8.094599.080934c0 0 2.773149-2.332388 8.911554-.632761l3.297799-1.942431s-4.841769-1.022719-7.727344-.654834c0 0 3.04297-1.611335 8.694199.139796l2.360925-1.044793s-3.55263-.684265-4.58694-.787273c-1.03431-.103007-1.09427-.389957-1.09427-.389957 2.247517-.367215 4.554807-.112432 6.663055.735769 0 0 5.036639-1.824708 4.954194-2.133731z" fill="#2b2c4a"/><ellipse cx="379.5" cy="611" fill="#2b2c4a" opacity=".1" rx="20.5" ry="4"/><path d="m627.42911 560.036204s-28.487091-1.684404-25.158599 17.925295c0 0-.667198 3.464429 2.533852 5.038501 0 0 .052476-1.471095 2.923675-.963567 1.025029.168669 2.066766.218047 3.103593.147109 1.399488-.091699 2.729558-.6318 3.785785-1.537294s8.021365-3.243765 11.132455-16.101137c0 0 2.308953-2.809792 2.248981-3.530629l-4.842806 2.059533s1.641756 3.405586.352341 6.237444c0 0-.157429-6.119756-1.079511-5.972646-.187415 0-2.503866 1.176876-2.503866 1.176876s2.82622 5.935869.697184 10.253533c0 0 .809634-7.311343-1.581783-9.81956l-3.388464 1.941846s3.306002 6.127111 1.064517 11.128835c0 0 .577239-7.671762-1.776694-10.658085l-3.066111 2.331686s3.103594 6.046201 1.206953 10.19469c0 0-.247388-8.936904-1.874151-9.606252 0 0-2.683783 2.32433-3.096097 3.280542 0 0 2.129036 4.413286.809634 6.693483 0 0-.809634-5.943224-1.499321-5.972646 0 0-2.676287 3.942535-2.953662 6.619928.130224-2.499339.92637-4.921439 2.308954-7.024479-1.544392.28703-2.969665 1.010538-4.100642 2.081599 0 0 .41981-2.780369 4.760343-3.030456 0 0 2.248981-2.986323 2.80373-3.17021 0 0-4.318044-.353063-6.941855.787036 0 0 2.308954-2.63326 7.728998-1.434318l2.998641-2.427307s-5.689921-.735547-8.096331.08091c0 0 2.773743-2.32433 8.913461-.63257l3.298505-1.934491s-4.850302-1.029766-7.736494-.654637c0 0 3.043621-1.610849 8.703556.132399l2.36143-1.037123s-3.55339-.684059-4.595418-.794391-1.094504-.38984-1.094504-.38984c2.25046-.367324 4.56071-.112632 6.671977.735547 0 0 5.067703-1.846224 4.977744-2.155154z" fill="#2b2c4a"/><ellipse cx="607.5" cy="586" fill="#2b2c4a" opacity=".1" rx="20.5" ry="4"/><ellipse cx="649.5" cy="335" fill="#2b2c4a" opacity=".1" rx="59.5" ry="10"/><path d="m718.923793 142.435223c2.421466-8.141037 0-16.282074 0-16.282074v-7.658549s2.765207-15.018413-9.548368-24.6528673l-8.173403-7.2220112s-4.583217-3.9364939-5.904711-4.189226c-.251896-.0547121-.507048-.0930844-.763869-.1148782l-.244438-.1378539c-.701276-1.2055934-1.299239-2.4686803-1.787455-3.7756643 1.071506.1374739 2.146127-.2301479 2.910343-.9956113.29471-.3394492.527432-.7283268.687482-1.1487823.473599-1.0645382.549986-2.3511744.954837-3.4846395.353527-.920776.871204-1.7693775 1.527739-2.5043454-.084026.1378539-.168051.2680492-.244438.4059031 1.153442-1.4398071 2.665904-2.680492 3.74296-4.2045431.217184-.2991388.416153-.6111543.595818-.9343429l-.160413.1914637c1.527739-2.4201013 1.963145-5.3609839 2.39855-8.1793298.209795-.9623572.225378-1.9570771.045833-2.9255655-.207495-.6445777-.481421-1.2657218-.817341-1.8533687-1.772177-3.6761032-1.733983-8.2865494-4.583216-11.2197735-2.131196-2.1980034-5.347086-2.8719556-8.402564-3.2472245s-6.240813-.5897082-8.853247-2.1903449c-.732156-.5544491-1.539912-1.0006435-2.39855-1.3249288-.895633-.3112541-1.88561.0581417-2.360356.880733-.053375.2335276-.160644.451246-.313187.6356596-.277602.1606321-.614532.180503-.909004.0536098l-4.048508-1.0875139.045832.2067808h-.099303l.145135.6433181c.129858 0 .267354 0 .381935.2220979l-.649289 1.0032698c-1.256736-.023158-2.497931-.2829536-3.658935-.7658548-.003811.0663191-.003811.1328032 0 .1991223h-.053471c-.076387 1.1487822 1.222191 1.8916614 1.619403 2.9715168.160634.4716727.160634.9834514 0 1.4551242-.169309.4380017-.429707.8348349-.763869 1.1640993-1.443713 1.42449-3.277 1.1411237-4.934597 2.0448325-.290134.1208406-.511388.3651327-.603456.6662937-.062994.1115397-.082069.2426787-.053471.3676103.063938.1729917.181803.3207055.336102.4212202.482913.3895619 1.011322.718747 1.573571.9802942l-.473599.4595129c-4.259672 4.3478393-6.063258 10.5462603-4.80355 16.5084609s5.415133 10.8950343 11.06728 13.1377801c.061109.3140005.106941.6356595.152773.9802942v.0919026l.045833.4365372-5.461667 2.2975646c-1.679777-.0115857-3.202517-.9926081-3.911011-2.5196625-1.268024-2.6345406-5.751937 0-5.751937 0s-13.696179-1.033904-18.760633 1.493417c0 0-8.173403-3.4386883-9.319207-3.6684447-1.145805-.2297565-2.879788-1.1487823-3.68949-.9190258-.809701.2297564-1.840925-1.5317097-2.413827-1.3785388-.572902.153171-.76387-1.1411237-2.642988-1.6006366-1.879119-.4595129-2.536047.1148782-4.583217-1.9529298-2.04717-2.0678081-18.875214-10.2011866-18.875214-10.2011866l-7.592862-6.1957656-8.058822-6.4178636-.145136.2680492c-.045832-.1914638-.099303-.390586-.152773-.5973668-.79222-3.2012103-1.789874-6.347767-2.98673-9.4200146-.519431-1.2406849-.763869-2.8106873-1.443713-1.9835641-.427767.4978057-1.161082-.5897082-2.291608-1.3249288-.471393-.3293753-1.06603-.4274531-1.617821-.2668392-.551792.160614-1.001595.5627043-1.223774 1.0939624-6.271368 9.8565518-8.517144 10.5687968-4.881125 14.1759732 3.231167 3.2165903 5.385279 6.0579118 8.028267 6.8926936l.313187.0995611c-.057976.0117586-.117714.0117586-.17569 0l15.277388 18.3422235s11.045552 9.634454 18.646053 12.7285075c7.600501 3.0940536 7.01996 4.0130794 7.01996 4.0130794s23.015386 11.6946036 26.582657 11.4878226c3.56727-.206781 2.879787 23.963598 1.382603 27.861799s-3.911011 32.104635-3.911011 32.104635-2.291608 5.958351.11458 10.086309c0 0 .534709 7.903622.053471 9.795283-2.100641 3.239566-5.08737 8.738404-5.576247 14.398071 0 .298684-.061109.58205-.091664.873075-.152999.179221-.336658.329643-.542347.444196 0 0 .198606-.045952.511792-.153171-.228334 2.351215-.741355 4.665811-1.527739 6.892693-1.223281 3.177024-1.860016 6.550629-1.879119 9.956113v18.219687l-1.5201 11.296359s-1.840925 8.554598 0 10.545821c.781028.994804 1.142917 2.256465 1.008308 3.515274-.077757 1.459447.336598 2.90267 1.176359 4.097323.648183.711986.930338 1.685123.763869 2.634541-.611095 1.983564.901366 23.075206.901366 23.075206s-.443044 5.812839-1.05414 6.126839c-.611095.314001 1.023585 6.678254 1.023585 6.678254s-6.217897 5.200155-4.636687 7.957232l1.588848 2.443077-.420128.413562-.259715.26039c-.477705-.277353-1.035591-.382735-1.58121-.298683-1.951473 2.006574-4.042052 3.872256-6.256091 5.583082-2.803401 2.029515-10.434456 4.970398-10.434456 4.970398l-6.019291.490147h-.114581s-2.879787-.268049-1.268023 4.204543c1.611765 4.472592 16.041258 3.063419 16.041258 3.063419l8.402564-1.332587s15.03295.068927 19.333535-.880733c1.802732-.405903 2.230499-1.363222 2.115918-2.343516l-.045832-.045951c-.204044-.930676-.625543-1.79949-1.229829-2.53498-.032544-.04587-.06828-.089377-.106942-.130195l.274993-3.06342c6.37831-3.683761-1.802732-10.936407-1.802732-10.936407s2.795762-6.126838 4.239475-8.095085c1.443714-1.968247 1.436075-31.18561 1.436075-31.18561s.763869-10.553479-1.22983-13.019532c-.06901-1.620102.755626-3.147143 2.146473-3.974787 1.420797-.972635 5.713744-14.367437 9.082408-25.487649l2.123557 13.103777s-.458322 6.264692.924282 8.102744c.519169.697137.724104 1.580095.565263 2.435418-.336788 1.767752-.229154 3.591769.313187 5.307374.154352.732318.543322 1.393942 1.10761 1.884003 1.22983.612684 1.306217 2.79537 1.764539 3.254883.458321.459513 3.299916-.650976 3.452689 1.026246.087286 1.476804.087286 2.957495 0 4.434299l.924283 27.210823s-1.527739 2.297564-1.840926 8.255915c-.129858 2.573272-.611095 4.036055-1.107611 4.870837-.566093.921438-.47346 2.104024.229161 2.925565l.267355.306342-1.138166.880733c-.929104.724905-1.222622 2.004387-.70276 3.06342-.749014.65499-1.029581 1.698512-.710398 2.642199.055082.147876.121482.291263.198606.428879-.860768.136314-1.659923.531589-2.291609 1.133465-1.132366 1.563284-2.497834 2.942634-4.048508 4.089665-2.255234 1.726394-4.412695 3.57753-6.462335 5.544789-.964146 1.339028-2.266632 2.396414-3.773515 3.063419-.367586.149082-.748771.261939-1.138165.336976-3.055478.620343-2.070087 3.790982.381934 4.288788 2.452021.497805 10.587231 3.017468 16.919708 1.531709 0 0 1.879119.765855 4.636688-.643318 2.757568-1.409173 9.036575-3.063419 9.036575-3.063419s3.45269 0 3.911012-1.378539c.123373-.436335.190126-.886796.198606-1.340246l.099303-.091903-.091665-.084244c.008087-1.026032-.071133-2.050887-.236799-3.063419-.084026-.520781-.183329-.995611-.274993-1.37088-.297909-1.148782-.840257-2.626882-1.077056-3.254883.040004-.050566.075773-.104359.106942-.16083 1.313855-2.228637-.870811-7.658548-.870811-7.658548.723382-1.136556 1.599936-2.167445 2.604794-3.06342 1.22983-.911367 4.453359-24.760087 4.453359-24.760087s-.152774-6.126838 1.527739-8.868599c1.680513-2.74176-2.291608-19.41442-2.291608-19.41442s-1.688152-3.829274-1.069418-5.200154c.618735-1.370881-.618734-6.417864-.618734-6.417864v-6.019619c-.001798-.719048-.120481-1.432995-.35138-2.113759-.473599-1.416832-1.176359-4.135617-.412489-6.126839 1.077056-2.749419 3.529077-19.720762 3.529077-19.720762s-1.917313-7.482402.886088-13.440753c.225974-.477362.481081-.940306.76387-1.386197 2.077724-3.277859 1.45899-9.098356.435405-13.785387-.160413-.727563-.328464-1.42449-.496515-2.090784-.076387-.283366-.152774-.551416-.221522-.819465l.328464-.137854s0-.451854.099303-1.21005c2.297353-.447485 4.304476-1.835306 5.538053-3.829275 0 0 7.01996-7.91128 13.237857-11.23509 6.217898-3.32381 6.676219-8.141037 6.676219-8.141037-.924282-1.608295 1.642319-8.141037 1.642319-8.141037zm-20.219624 10.545821-6.645664 7.727475c-.002194-.015238-.002194-.030713 0-.045951-1.726345-2.404784 1.611764-7.796402 1.611764-7.796402l5.492222-12.337922c-.045833 1.592978-.2368 2.986834-.718038 3.645469-1.527738 2.067808 2.757569 5.506496 2.757569 5.506496-2.299247-.022975-2.528408 3.300835-2.528408 3.300835z" fill="url(#b)"/><path d="m582 52.0116047-3.635093 6.9883953c-1.15463-.0937563-2.29314-.328224-3.389687-.6980807-3.517349-1.0471665-6.414313-3.5324096-7.960394-6.8290508-3.251644-7.1173884 2.131975-11.7156159 4.639729-13.0662504s4.831453-2.9061405 6.710352 1.5175668c1.183291 3.0259511 2.172005 6.1229085 2.960223 9.2723334.414125 1.6844992.67487 2.8150864.67487 2.8150864zm116 36.9364052-5.869353 8.7837465s-27.767148 13.2804656-22.455306-2.3299062c2.322963-6.8732234 2.609461-11.9058208 2.191328-15.3851474 0 0 0-.0621309 0-.0931963-.542025-4.3491582-2.175842-6.2130832-2.175842-6.2130832s27.062516-13.8862411 23.036048-4.3879901c-.820421 1.975147-1.14993 4.1206957-.960158 6.2519151.334447 3.0697574 1.330529 6.0298361 2.919189 8.6750174.945136 1.6735102 2.055402 3.2476186 3.314094 4.6986442z" fill="#cc818c"/><path d="m688.860368 260.849807s3.993488 16.532421 2.321795 19.262335-1.547864 8.79384-1.547864 8.79384-3.227295 23.666902-4.457847 24.576874c-1.007939.895902-1.885636 1.925228-2.60815 3.058727 0 0 2.190227 5.352772.874543 7.57035-.198512.34295-.505879.611704-.874543.764681-2.058658.856444-9.658668-2.944024-13.984947-5.276304-.544872-.287488-.955521-.772732-1.145419-1.353487-.329883-.931966-.050752-1.968471.704278-2.615212-.525278-1.056026-.231676-2.331157.704278-3.058727l1.137679-.871737-.263136-.305873c-.704508-.817368-.798149-1.98932-.23218-2.905791.495316-.825856.975154-2.294045 1.106723-4.825142.309572-5.918637 1.841957-8.189742 1.841957-8.189742l-.920979-27.000914c.084201-1.46446.084201-2.932461 0-4.396921-.154786-1.667006-2.995116-.565864-3.451735-1.024673-.45662-.458809-.541753-2.615212-1.764565-3.226958-.567743-.485-.959167-1.140319-1.114462-1.865823-.542089-1.70382-.65107-3.513342-.317312-5.268658.159596-.848037-.045082-1.72345-.56497-2.416394-1.385338-1.819943-.920979-8.036806-.920979-8.036806l-2.120573-12.999591c-3.374342 11.034359-7.669664 24.324528-9.085959 25.288028-1.39652.824693-2.222672 2.339798-2.15153 3.945758 1.996744 2.424041 1.230551 12.892535 1.230551 12.892535s0 28.966147-1.439513 30.939026-4.241146 8.036805-4.241146 8.036805 8.226895 7.23389 1.756825 10.881422l-.069654.038235c-6.601638 3.639885-20.261534-6.515089-20.261534-6.515089l1.424034-1.407015.417924-.412928-1.547864-2.431688c-1.58656-2.729914 4.643591-7.88387 4.643591-7.88387s-1.656214-6.369799-1.044808-6.675672 1.044808-6.071573 1.044808-6.071573-1.509167-20.929341-.897761-22.894574c.1833-.936122-.085708-1.903157-.727496-2.615211-.836509-1.187375-1.250285-2.615591-1.176376-4.060461.135362-1.247282-.225428-2.497698-1.006112-3.486949-1.841957-1.972879 0-10.468494 0-10.468494l1.547864-11.225528v-17.878261c-.001052-3.427769.628317-6.827198 1.857436-10.032625.927112-2.60382 1.489552-5.320661 1.671693-8.07504.503056-5.750407 3.62974-11.340231 5.734834-14.528954 1.114462-1.6823 1.942569-2.69168 1.942569-2.69168l49.121451-1.904058s.773931 2.16405 1.547863 5.169249c.170265.657626.34053 1.34584.495317 2.072288 1.029329 4.664559 1.648474 10.437906-.433402 13.695451-.291279.437084-.549941.894555-.773932 1.36878-2.809372 5.910991-.890022 13.336051-.890022 13.336051s-2.453363 16.823-3.529128 19.568207c-.773932 1.934645-.061915 4.633972.417923 6.040986.227707.675767.345264 1.382999.348269 2.095229v5.972164s1.230552 5.001019.619145 6.3698c-.611406 1.36878 1.052548 5.161602 1.052548 5.161602z" fill="#444053"/><path d="m690.521778 200.637056c-.306993.438019-.583898.89322-.829096 1.362944l-2.959872-.152284c.281893-1.401015-1.73281-14.535533-1.73281-14.535533l5.96949-.312183c1.110989 4.675127 1.782556 10.431472-.447712 13.637056z" fill="#000" opacity=".1"/><path d="m691.520149 199.637056c-.311948.43522-.588965.890741-.828851 1.362944l-2.967287-.152284c.290097-1.401015-1.724011-14.543147-1.724011-14.543147l5.95944-.304569c1.127238 4.64467 1.790319 10.393401-.439291 13.637056z" fill="#444053"/><path d="m691.520149 199.637056c-.311948.43522-.588965.890741-.828851 1.362944l-2.967287-.152284c.290097-1.401015-1.724011-14.543147-1.724011-14.543147l5.95944-.304569c1.127238 4.64467 1.790319 10.393401-.439291 13.637056z" fill="#000" opacity=".05"/><path d="m683 323.955489c-.186049.403365-.474116.719464-.819632.89939-1.929401 1.007316-9.052225-3.462651-13.106867-6.205789-.510661-.338133-.895526-.908859-1.073501-1.59192 2.306576-.521646 3.822534 2.698169 3.822534 2.698169.778403-.607505 1.722023-.798294 2.615747-.528874.893723.26942 1.661378.976086 2.127967 1.958904 1.980174 3.597558 6.223404 2.086584 6.223404 2.086584s.08704.242835.210348.683536z" fill="#000" opacity=".1"/><path d="m684.789416 332.529486c-.465311 1.339166-3.924121 1.339166-3.924121 1.339166s-6.204143 1.722859-8.964987 3.062024c-2.760844 1.339166-4.653107.631966-4.653107.631966-6.351492 1.421923-14.502185-1.038229-16.960577-1.50468s-3.427789-3.58114-.387759-4.175488c.390519-.076348.772358-.189744 1.140011-.338554 1.516852-.655752 2.824007-1.695169 3.784528-3.00936 2.055435-1.918451 4.217169-3.726752 6.475574-5.41685 1.559015-1.117224 2.929894-2.46236 4.063714-3.987403 3.613913-3.099641 6.204143 1.158604 6.204143 1.158604.832254-.508178 1.841154-.667773 2.796706-.442403s1.776314.816497 2.275181 1.638624c2.117164 3.009361 6.653944 1.745429 6.653944 1.745429s.775518 2.016272 1.194298 3.468289c.093062.368646.193879.835097.279186 1.346689.303768 1.479403.311667 3.001652.023266 4.483947z" fill="#ff748f"/><circle cx="674.5" cy="322.5" fill="#575988" r="1"/><circle cx="671.5" cy="325.5" fill="#575988" r="1"/><circle cx="667.5" cy="328.5" fill="#575988" r="1"/><circle cx="669.5" cy="327.5" fill="#575988" r="1"/><circle cx="672.5" cy="324.5" fill="#575988" r="1"/><path d="m684.804152 332.50446c-.465498 1.345292-3.925693 1.345292-3.925693 1.345292s-6.206628 1.730741-8.968578 3.076032c-2.761949 1.345292-4.654971.634857-4.654971.634857-6.354036 1.428428-14.507994-1.042979-16.96737-1.511564-2.459377-.468584-3.429162-3.597522-.387914-4.194589.390675-.076697.772667-.190612 1.140467-.340102 2.685755.891471 5.489551 1.400576 8.324641 1.511564 6.268694.256966 11.233997 0 11.233997 0l6.346277-1.987707c1.201169-.712122 2.535535-1.184808 3.925693-1.390638 1.398103-.275788 2.720249-.837349 3.879143-1.647605.314155 1.484233.332592 3.013449.054308 4.50446z" fill="#dce6f2"/><path d="m669.046154 337c-.351464-.000417-.70198-.038246-1.046154-.112903l.092308-.467742c1.28052.208652 2.591296.017947 3.76923-.548387.561539-.233871 1.123077-.508065 1.669231-.806452s1.307693-.645161 1.984616-.91129l.623077-.225807c.346153-.120967.692307-.241935 1.023076-.395161.192308-.080645.376924-.177419.561539-.266129.448273-.247512.923543-.43707 1.415385-.564516.254219-.050782.511076-.085789.76923-.104839.232109-.016651.463206-.046263.692308-.088709.45882-.117005.902903-.29024 1.323077-.51613.452044-.241055.929731-.425133 1.423077-.548387l.338461-.064516c.359173-.008617.705469-.141925.984616-.379032l.330769.330645c-.347634.316168-.786482.500769-1.246154.524194l-.315384.056451c-.45882.117005-.902903.29024-1.323077.516129-.452045.241056-.929731.425134-1.423077.548387-.25368.052784-.510842.085136-.769231.096775-.239943.018798-.478749.051103-.715385.096774-.454786.12145-.893877.300169-1.307692.532258l-.576923.274193c-.353846.153226-.707692.282259-1.061539.403226l-.607692.225807c-.661538.258064-1.315384.580645-1.953846.887096-.638462.306452-1.115385.556452-1.692308.806452-.936459.426563-1.941119.664575-2.961538.701613z" fill="#575988" opacity=".5"/><path d="m671 262s3.106503-5.381166 8.414703-5.29148 7.585297-.70852 7.585297-.70852-3.400566 2.394619-5.753063 2.690583c-2.352498.295964-10.246937 3.309417-10.246937 3.309417z" fill="#000" opacity=".1"/><path d="m671 262s3.02132-2.597315 4.751269-2.697987c1.729949-.100671 3.248731-.302013 3.248731-.302013-.809766.707761-1.706653 1.248315-2.655838 1.600671-1.478172.503356-5.344162 1.399329-5.344162 1.399329zm1 1s4.95583.463918 5 2m-44-66.00027c.247727.03813 4.518876-3.973174 4.817856-5.559393.237266-1.00036.906277-1.877062 1.862221-2.440337 0 0 2.759163.983761.298981 3.996052s-6.979058 4.003678-6.979058 4.003678zm58.601887-129.7293014c-.866089 2.067215-1.633413 2.2203421-1.466273 4.2263062-1.011566 1.075452-2.173546 1.9962729-3.449162 2.7333176-2.697032 1.6154903-5.62958 4.7699476-8.987574 4.7699476-2.246522.0047627-4.473677-.418674-6.564044-1.2480257-.531809-4.2875571-2.134834-6.1250815-2.134834-6.1250815s26.537275-13.7201824 22.601887-4.3564642z" fill="#000" opacity=".1"/><path d="m696 61.5c0 10.2172682-8.282733 18.5-18.5 18.5-10.217268 0-18.5-8.2827318-18.5-18.5 0-10.2172666 8.282732-18.5 18.5-18.5 4.90714-.0020746 9.613894 1.9463602 13.083767 5.4162332s5.418308 8.1766266 5.416233 13.0837668z" fill="#cc818c"/><path d="m698 88.549198-5.869353 8.4079503s-27.767148 12.7122857-22.455306-2.2302256c2.322963-6.5791653 2.609461-11.3964525 2.191328-14.7269227h.046459c.327876 1.1039515.512529 2.2425454.549768 3.3899428.085175 2.2896983.147121 5.2038597 6.078419 6.1554226 9.888078 1.5983283 15.19992-4.3415058 16.129105-5.5086571.949151 1.607729 2.064647 3.1195307 3.32958 4.5124897zm-116-36.6229307-3.962382 7.0737327c-1.258588-.0949011-2.499605-.332232-3.69488-.7066052l-.342738-.3763441c1.621735.5683564 7.088819-8.9170507 7.088819-8.9170507l.175549.1305684c.45141 1.6513056.735632 2.7956989.735632 2.7956989zm109 133.4770177c-11.657929 5.331134-52 .801674-52 .801674.126033-.4508.195157-.917103.205594-1.386897 1.0965-1.763683 1.911261-2.821893 1.911261-2.821893l48.32977-1.996169s.784302 2.252705 1.553375 5.403285z" fill="#000" opacity=".1"/><path d="m670.796639 79.9707715-5.416806 2.3078071c-1.671555-.0186207-3.182915-1.0008908-3.8823-2.5232024-1.250623-2.6309001-5.70069 0-5.70069 0s-13.588051-1.0308205-18.605885 1.4923819c0 0-8.102192-3.4386326-9.207036-3.6617206-1.104845-.223088-2.854182-1.1462109-3.652125-.9154302-.797943.2307808-1.826062-1.4923819-2.393829-1.3769915-.567767.1153903-.805616-1.1462109-2.631678-1.6000796-1.826062-.4538688-2.508917.1153903-4.565155-1.9462507s-18.713301-10.1851221-18.713301-10.1851221l-7.534425-6.1541523-7.987104-6.4080111s-5.025507 9.4927799-6.506305 8.9235209l15.176264 18.3086031s10.956373 9.615863 18.490798 12.7006318c7.534424 3.0847689 6.958985 4.0078917 6.958985 4.0078917s22.833449 11.6698115 26.370486 11.4467235c3.537036-.223088 2.854181 23.916574 1.36571 27.809076-1.488471 3.892501-3.874628 32.040055-3.874628 32.040055s-2.301759 5.94645.107416 10.069732c0 0 .575439 8.461959 0 9.954341 0 0 40.902257 4.384834 52.503123-.769269 0 0 1.710974-18.993252 0-21.401065-1.710974-2.407812 1.603559-7.77731 1.603559-7.77731l7.250541-16.400815 17.784924-17.977818s2.739093-14.993053-9.467902-24.6166091l-8.109864-7.2080509s-4.534465-3.9309648-5.854141-4.1771309c-1.319675-.2461661-.836305 0-.836305 0s-5.294046 7.6926904-16.112314 5.8926008c-5.877158-.992357-5.938538-3.9925063-6.022936-6.3695476-.036282-1.1792406-.216653-2.3495707-.537077-3.4847888z" fill="#67647e"/><path d="m694 142s-25.00382 1.03876-30 9c0 0 6.478228-3.100775 12.268908-2.193798 5.790679.906976 17.731092-6.806202 17.731092-6.806202zm-28 26.884188s11.937812.79195 14.468906-1.766048c2.531094-2.557999 2.531094-4.11814 2.531094-4.11814zm30.489836-51.884188s-11.610619 11.86778 2.510164 17zm-59.489836-22s4 7.498069 6 8zm-13-3s9.263977 8.203404 11 9c0 0-9.614296-9-11-9zm37-9s-10.541382 13.0486919-3.679366 21c-.05519 0-3.844937-9.4240552 3.679366-21z" fill="#000" opacity=".1"/><path d="m682 182.996237-2.641991 2.417817-.369878.338053-3.057161 2.814663c-.226457.161678-.437816.323355-.656724.470335-12.455099 8.693853-14.953667-4.512279-14.953667-4.512279s-5.50289 3.498119-6.287938.65406c-.785049-2.844058 12.832526-6.886002 14.817794-6.665532.180677.018295.362817.018295.543495 0 .981505-.159975 1.926723-.485787 2.792961-.962717.203811-.102886.407622-.205772.603884-.316007.693862-.376409 1.366636-.788537 2.015462-1.23463z" fill="#cc818c"/><path d="m696.977088 61.2843399c.001024 6.4478619-3.353725 12.4194804-8.828776 15.7156601-.249216-.4272048-.468686-.8714859-.656812-1.3296082-.649174-1.5460561-1.046316-3.1616847-1.695491-4.6922802-.733126-1.6720091-1.769323-3.1901539-3.05494-4.4758324-.204475-.2492228-.466911-.4431324-.763735-.5643105-.591789-.0803221-1.190341.0871899-1.657304.4638169-.764585.527827-1.619085.907858-2.520326 1.1208906-.9183.209441-1.877845-.0839793-2.527962-.773028-.702636-.8503309-.603351-2.1026363-.397142-3.1926058.435329-2.3809264 1.176151-4.7154711 1.176151-7.1350489 0-2.4195777-.901207-5.0324125-2.978566-6.230606-1.832964-1.0513181-4.108894-.773028-6.148066-1.352799-.315535-.0849872-.624419-.1935078-.924119-.3246718 5.132351-5.3211918 12.936842-6.9673329 19.741881-4.1640028 6.80504 2.8033301 11.255674 9.4979594 11.258119 16.934426z" fill="#000" opacity=".1"/><path d="m664.606578 46.5669328c-.329321.1748858-.689277.4866387-.589715.8516178.061123.1712065.176721.3180046.329322.4182051.842801.6780829 1.818129 1.1751965 2.864329 1.4599162 2.044855.5474686 4.334787.2889417 6.172859 1.3306528 2.07549 1.1785781 2.994526 3.7410352 2.986867 6.1210027-.007658 2.3799675-.765863 4.6838978-1.187088 7.0182429-.199125 1.0797297-.306345 2.281119.405908 3.1479443.653562.6751234 1.614262.9632844 2.535007.760373.90094-.2069298 1.755328-.578206 2.519691-1.0949372.467432-.3720801 1.068361-.5370444 1.661924-.4562238.311784.1135284.590601.3015564.811815.5474686 1.29224 1.2650112 2.33168 2.7613942 3.063454 4.4101635.658642 1.520746 1.056891 3.1023218 1.700216 4.6154641.571927 1.5555175 1.649924 2.8773001 3.063454 3.7562427 1.467142.879122 3.343957.6834692 4.595181-.479035 1.056891-1.155767 1.026257-2.9046249 1.531726-4.3873523.903719-2.562457 3.431068-4.1744478 5.008747-6.3871332 1.776803-2.4864198 2.29759-5.6267603 2.74945-8.6378374.210347-.9503319.225974-1.9329661.045952-2.8894175-.208988-.6323048-.47826-1.2433718-.804157-1.8248952-1.761486-3.6193755-1.723193-8.1740099-4.533911-11.0710311-2.113783-2.167063-5.315093-2.8285876-8.332594-3.1935666-3.017502-.364979-6.180518-.5930909-8.769137-2.1670631-.725355-.5448577-1.524657-.9851621-2.374176-1.3078416-.887274-.3064553-1.868591.0577023-2.335884.8668253-.053514.231856-.161062.448016-.314004.6311096-.271219.1554815-.600318.1751986-.888401.0532261l-4.013124-1.072126.459518 2.0073848c-1.458242.0575213-2.911533-.2019882-4.258201-.760373-.076586 1.1329558 1.210064 1.8705176 1.608313 2.9274361.295756.9897717-.001308 2.0603851-.765863 2.760154-1.485775 1.437105-3.30853 1.155767-4.947478 2.0454034z" fill="#585268"/><path d="m647 319.265934-.15861 1.88057-.067976.039508c-6.442598 3.761141-19.773414-6.732126-19.773414-6.732126l1.389728-1.453886c.458022.533939.677673 1.246292.60423 1.959586l2.726586.158031 3.255287 3.682125s8.814199 1.06671 11.200906.466192z" fill="#000" opacity=".1"/><path d="m645.887493 328.658451c-4.253611.919779-19.160406.852478-19.160406.852478l-8.323281 1.293674s-14.324319 1.33854-15.918465-2.991153 1.249258-4.075445 1.249258-4.075445h.107299l5.962718-.471106s7.564528-2.856551 10.338955-4.823234c2.190789-1.661901 4.26003-3.470958 6.192643-5.413986 0 0 2.490853-.471106 2.444868 2.340577l2.766763.149558 3.303254 3.477214s8.944077 1.016992 11.365953.448673h.835393l-.383208 4.299782.107298.134602c.528828.665531 2.912382 3.948321-.889042 4.778366z" fill="#ff748f"/><g fill="#575988"><circle cx="630.5" cy="318.5" r="1"/><circle cx="619.5" cy="322.5" r="1"/><circle cx="614.5" cy="324.5" r="1"/><circle cx="623.5" cy="321.5" r="1"/><circle cx="617.5" cy="323.5" r="1"/><circle cx="626.5" cy="319.5" r="1"/><circle cx="628.5" cy="319.5" r="1"/></g><path d="m645.887493 328.421487c-4.253611 1.01286-19.160406.938749-19.160406.938749l-8.323281 1.424593s-14.324319 1.474-15.918465-3.293857 1.249258-4.487879 1.249258-4.487879h.107299c.912035 1.268134 2.74377 2.717431 6.345926 2.783308l10.300634.452906 10.676179-.823464s9.963411-.329386 11.626534-.69171c1.368842-.397585 2.702446-.923889 3.985364-1.572817.528828.741118 2.912382 4.356125-.889042 5.270171z" fill="#dce6f2"/><path d="m619.708417 329.999927c-.576048.002702-1.150104-.0693-1.708417-.214282l.155311-.428564c1.426457.318051 2.909474.249656 4.302104-.198409.512525-.134918 1.017284-.285709 1.553106-.444436 2.407498-.837939 4.96401-1.133058 7.493738-.865064h.333917c4.629691.251803 9.272385.03915 13.861473-.634909 1.089679-.073503 2.128386-.498682 2.966433-1.214263l.333918.333327c-.907431.786989-2.035815 1.259387-3.222695 1.349182-4.628098.674951-9.309519.887591-13.977956.634909h-.326153c-1.530336-.113837-3.068026-.068632-4.589428.134918-.931844.179226-1.8524.41509-2.756764.706336-.512525.158727-1.02505.317455-1.553106.452373-.935452.25178-1.898153.382431-2.865481.388882z" fill="#575988" opacity=".5"/><path d="m683 182.431694-2.581967 2.568306-6.418033-8.688525c.678098-.399837 1.335587-.837616 1.969672-1.311475z" fill="#000" opacity=".1"/><path d="m712.735537 112 5.205728 7.270259v7.636826s2.382154 8.072126 0 16.136615l.266375 7.041154s-2.526757 6.476028-1.621082 8.064488c0 0-.456643 4.773017-6.568046 8.072126s-13.021931 11.073398-13.021931 11.073398-2.602864 5.002122-9.619943 3.864235l-6.682206 2.840899-7.694432-9.882053 10.411457-5.681799s3.622699-4.887569 5.776531-4.658465l8.828428-10.317352s.228322-3.291472 2.488704-3.291472c0 0-4.185893-3.406025-2.717025-5.452694 1.468868-2.04667.228321-11.134493.228321-11.134493z" fill="#67647e"/><path d="m702 146.26311s12.338514-.231438 13.863055 2.968797-10.103047-4.748479-13.863055-2.968797zm-22.000565 38.708757c.003839.2005-.011881.4009-.046946.598465-.290576 1.894209-1.898944 3.327164-3.849505 3.429668h-.219077c-2.268623 0-4.107704-1.803457-4.107704-4.028133.002775-.446496.079404-.889593.226901-1.31202-1.940401-1.534527-2.042115-4.28133-1.99517-5.654732 1.017347-.16702 1.997082-.50718 2.894953-1.005115.507288 1.427645 1.187652 2.790351 2.026467 4.058824.312146-.076717.632752-.115372.954553-.11509 1.090785-.002037 2.137607.421454 2.909644 1.177097.772037.755642 1.205886 1.781378 1.205884 2.851036z" fill="#000" opacity=".1"/><path d="m673.247336 176s-3.186999.582967-3.186999 1.055244-.715264 4.759669 2.77957 6.515949c3.494834 1.756281 3.150783-2.449937 3.150783-2.449937s-3.014974-3.770838-2.743354-5.121256z" fill="#575988"/><circle cx="676" cy="184" fill="#e4aab4" r="4"/><circle cx="675" cy="185" fill="#dce6f2" r="4"/><path d="m660.064788 187s8.723127 7.096257 19.935212 2.601448v3.43268s-7.474723 5.03357-14.250654 1.98572-5.684558-8.019848-5.684558-8.019848z" fill="#000" opacity=".1"/><path d="m660.064788 186s8.746682 7.11451 19.935212 2.58499v3.441509s-7.474723 5.046518-14.250654 1.990828-5.684558-8.017327-5.684558-8.017327z" fill="#000" opacity=".1"/><path d="m660.064788 186s8.746682 7.11451 19.935212 2.58499v3.441509s-7.474723 5.046518-14.250654 1.990828-5.684558-8.017327-5.684558-8.017327z" fill="#444053"/><path d="m660.061661 186s8.724496 7.10374 19.938339 2.604191v3.4363s-7.499454 5.015764-14.252889 1.987814-5.68545-8.028305-5.68545-8.028305z" fill="#000" opacity=".05"/><path d="m634 313s11.64154 2.201613 13.347088 2.677419c1.705549.475807-.469416 1.322581-.469416 1.322581s-10.663589-1.959677-12.877672-4zm-1-6c.176471 0 7.433824-2.212202 9-6m2-37.995572s3.354536 4.110326 5.518212 3.993112c2.163675-.117215-3.547422-4.149398-5.518212-3.993112zm1 5.995572s1.615385 2.690951 4 1.830136" fill="#000" opacity=".1"/><path d="m653 207.032379 7.741609 21.967621s1.093365-14.134451-1.218111-18.36689c-1.338554-2.463478-3.883255-3.86806-6.523498-3.600731z" fill="#000" opacity=".05"/><path d="m10.3846154 1.23719298-.0692308-.30175438-1.30769229-.33947369.14615384.62614035c.4094757.03148066.8206191.03652077 1.23076925.01508772zm-3.5846154 5.04684211.13846154-.12070176c.76659358-.69186414 1.06498882-1.75120915.76923077-2.73087719-.15753461-.37164712-.37578015-.71562998-.64615385-1.01842105-.64485886-.11995842-1.27610862-.30188853-1.88461538-.5431579-.07692308 1.12403509 1.21538461 1.84824562 1.61538461 2.90438597.17846314.48725599.1811782 1.01979015.00769231 1.50877193zm21.6153846 34.49807021c-1.4181722-.8737621-2.5004193-2.1845437-3.0769231-3.7266667-.6538461-1.5087719-1.0461538-3.0929825-1.7076923-4.5791228-.7337095-1.6342639-1.7779371-3.1166136-3.076923-4.3678947-.2167016-.2483698-.4948169-.4379947-.8076924-.5507018-.5962339-.0810949-1.2001673.0826688-1.6692307.4526316-.7716089.5124001-1.6317326.8830398-2.5384616 1.0938596-.9245535.1952921-1.8865178-.089723-2.5461538-.7543859-.7076923-.8298246-.6076923-2.0519299-.4-3.1156141.4461538-2.3235087 1.1846154-4.6092982 1.1923077-6.9705263s-.9153846-4.9035088-3.0076923-6.0350877c-1.84615387-1.0335088-4.13846156-.754386-6.15384618-1.3201754-1.05145506-.2808236-2.03140491-.774191-2.87692307-1.4484211l-.16153847-.14333333c-.17101673.06867367-.33794841.14675084-.5.23385965-.33076923.17350877-.68461538.48280698-.59230769.83736838.06620058.1714016.18431181.318824.33846154.4224562.84790057.6689528 1.82722676 1.1594382 2.87692308 1.4408772 2.05384615.5507017 4.34615384.2942105 6.19230769 1.3277193 2.0923077 1.1617544 3.0076923 3.7115789 3.0076923 6.0350877s-.7692308 4.6470175-1.1923077 6.9629824c-.2076923 1.0636843-.3076923 2.2631579.4 3.1156141.655619.6711153 1.6213024.9572323 2.5461539.7543859.9062029-.2085033 1.766295-.5765733 2.5384615-1.0863157.4699625-.3686444 1.0722445-.5346822 1.6692308-.4601755.297443.120919.5611602.3097174.7692307.5507018 1.2957101 1.2539809 2.3394795 2.7356803 3.0769231 4.3678947.6615385 1.5087719 1.0538462 3.0854386 1.7076923 4.5791228.5665886 1.5594254 1.6499677 2.8875151 3.0769231 3.7719298 1.4538462.754386 3.4692308.754386 4.6153846-.4752631.2970884-.3299574.529217-.7110775.6846154-1.1240351-1.2808185.9408231-3.0159396 1.0244122-4.3846154.2112281zm6.5692308-5.6956141c1.1461538-1.4182456 2.6461538-2.6252631 3.7230769-4.1189473.213513-.2965445.411214-.60374.5923077-.9203509-1.3846154 1.7275438-3.2846154 3.1231579-4.3153846 5.0392982z" fill="#000" opacity=".1" transform="translate(663 38)"/><g fill="#000" opacity=".1" transform="translate(439 51)"><path d="m191.203168.31507389h-181.51374052c-5.23292717.01265453-9.47309662 4.25656075-9.48996183 9.49832512v114.87901499c.01686521 5.241764 4.25703466 9.48567 9.48996183 9.498325h142.38778652s3.690114 19.619113-8.438932 21.724729c0 0 27.142672 1.951921 22.401527-21.724729h25.155687c5.231675-.012674 9.469638-4.257804 9.48229-9.498325v-114.87901499c-.012633-5.23753218-4.24594-9.48143145-9.474618-9.49832512z"/><g opacity=".2"><rect height="8.976" rx="4.488" width="147.037" x="26.92" y="30.808"/><rect height="8.976" rx="4.488" width="121.329" x="26.92" y="70.922"/><rect height="8.976" rx="4.488" width="87.343" x="26.92" y="50.865"/></g></g><path d="m632.547987 48h-181.080667c-5.22168.0169105-9.450516 4.2726534-9.46732 9.5275577v115.1394183c.016825 5.253646 4.246878 9.507172 9.46732 9.519856h142.048063s3.681311 19.663585-8.418796 21.773973c0 0 27.077912 1.956346 22.348079-21.773973h25.095668c5.219192-.012703 9.447044-4.267455 9.459666-9.519856v-115.1394183c-.012581-5.2506649-4.234572-9.5064009-9.452013-9.5275577z" fill="#fff"/><g fill="#2b2c4a" opacity=".2"><rect height="8.943" rx="4.471" width="146.74" x="468.138" y="79.015"/><rect height="8.943" rx="4.471" width="121.084" x="468.138" y="118.989"/><rect height="8.943" rx="4.471" width="87.166" x="468.138" y="99.006"/></g><ellipse cx="495" cy="605.5" fill="#2b2c4a" opacity=".1" rx="64" ry="10.5"/><g fill="#000" opacity=".1" transform="translate(363 279)"><path d="m206.402148.66923077h-195.9036269c-5.64772902.0168969-10.22194851 4.62192467-10.23873237 10.30769233v124.6153849c.01678386 5.685767 4.59100335 10.290795 10.23873237 10.307692h153.6803169s3.98088 21.276923-9.100246 23.561538c0 0 29.287359 2.115385 24.167993-23.561538h27.155563c5.647729-.016897 10.221948-4.621925 10.238732-10.307692v-124.6153849c-.016784-5.68576766-4.591003-10.29079543-10.238732-10.30769233z"/><g opacity=".2"><rect height="9.738" rx="4.869" width="158.7" x="29.096" y="77.27"/><rect height="9.738" rx="4.869" width="68.813" x="29.096" y="55.508"/></g></g><path d="m567.733795 278h-196.46759c-5.662883.016913-10.249376 4.626241-10.266205 10.317319v124.731769c.016829 5.691078 4.603322 10.300407 10.266205 10.31732h154.092678s3.991562 21.296794-9.124665 23.591243c0 0 29.373606 2.11736 24.240503-23.591243h27.259074c5.662883-.016913 10.249376-4.626242 10.266205-10.31732v-124.731769c-.016829-5.691078-4.603322-10.300406-10.266205-10.317319z" fill="#fff"/><g fill="#2b2c4a" opacity=".2"><rect height="9.646" rx="4.823" width="159.005" x="390.651" y="354.263"/><rect height="9.646" rx="4.823" width="68.945" x="390.651" y="332.709"/></g><path d="m532.964228 597.735273c-.929418-3.937209-1.536227-7.398576-1.536227-7.398576s.215071-4.290254-1.712894-7.5137v-1.074482-7.928142c.546711-1.43941 1.21749-2.828664 2.004777-4.152106 1.428691-2.494333 0-11.627431 0-11.627431s-5.299985-12.878434-4.009554-21.044498-10.884172-36.279119-10.884172-36.279119c.074942-2.710733.458917-5.404094 1.14449-8.027916.127535-.550667.17922-1.116156.153623-1.680797.003974-.069016.003974-.138204 0-.207221v.069074c-.184348-5.372411-4.447379-15.487892-4.447379-15.487892l.576085-19.240903s2.719123-11.351135-1.720574-26.585756c-1.536228-5.311011-2.542457-9.570565-3.17231-12.847735-.06913-.376069-.13826-.767487-.19971-1.074482 9.140554-1.389152 16.130389-2.548058 16.130389-2.548058s-5.284623-22.157355-8.864033-25.99479c-3.57941-3.837436-6.436793-16.117231-6.436793-16.117231s-1.866516-15.649064 1.14449-20.215612c3.011006-4.566549 3.433468-12.456317 3.433468-12.456317s6.913024-4.988667 7.734905-7.19903c.821882-2.210363 2.304342-7.19903 2.304342-9.831511s-.860288-4.988666-.576086-6.370143-2.004777-6.646439-.860287-9.140773c.299504-.765803.455717-1.580051.460868-2.402234 0 0 0-.04605 0-.069074.006786-2.178759-.196422-4.353107-.60681-6.492942-1.984613-1.675163-4.301177-2.912271-6.797806-3.630214l-.153623-.59864-.384057-1.534974c-.230434-.153498-.453187-.283971-.67594-.406769v-.56794l-.06913-2.248738 1.08304-5.050065c2.112313-8.795403-9.632146-10.107806-9.632146-10.107806-.709191-1.348219-1.894585-2.384935-3.325932-2.908777-2.365791-.828886-.391738 13.223804.714345 14.121764.829563.675389 3.395063 5.080765 4.608683 7.245079l.199709.360719c-.195743.170199-.375701.357716-.537679.560266l.445506 3.069949.06913.468167c-.776408.967786-1.407754 2.043302-1.874198 3.192746 0 0 2.150719 2.356186 1.720575 4.988667s.652897 5.909651.706665 6.086173c-.122898-.145822-1.636083-1.78057-3.141585-1.381477-1.505503.399094-5.730129 1.665448-5.730129 1.665448s-3.149266.55259-2.857383 1.243329c.291883.690738-2.150718 3.737662-2.150718 3.737662l-8.449251-8.012566c-.076812-.237921-.168986-.475842-.245797-.729113-.360237-1.143903-.6173-2.317724-.768114-3.507416.920406-.222488 1.823913-.509733 2.703761-.859586.876108-.30905 1.665996-.822059 2.304341-1.4966.852606-1.013083 1.01391-2.386885 1.359561-3.645564.67594-2.463633 2.112313-4.658647 3.141585-6.999483 1.744973-3.942872 2.331078-8.300468 1.689851-12.563765-.134338-1.311046-.579326-2.571253-1.298113-3.676263-1.382604-1.903369-3.886655-2.670856-5.714766-4.19048-1.82811-1.519625-2.995643-3.837436-5.115637-4.965642-1.920285-1.028433-4.263031-.905635-6.429112-.552591-4.232457.698615-8.298189 2.176803-11.990256 4.359327-1.236663.729113-2.588543 1.573349-4.009553 1.320078-1.21362-.222571-2.104632-1.19728-2.895789-2.12594 0-.038374 0-.076748.038406-.115123l-.092174-.107448c-.867573 1.974646-1.294795 4.11425-1.252025 6.27037 0 .337695 0 .675389.038405 1.013084v.353044.291645c.002244.153157-.018469.305787-.061449.452817-.1727.430919-.434436.820588-.768114 1.143556-.260165.289065-.491681.602642-.691302.936334.031534-.117299.070008-.232624.115217-.345369-.540085.788994-.843841 1.715493-.875649 2.670856-.048664.692522.177618 1.37633.629853 1.903368.423956.41454.886972.78722 1.382605 1.112856-1.206143 6.643327 1.859722 13.333715 7.681137 16.76192.099855.237921.199709.483517.291883.729113 1.08304 2.847377 1.897241 6.139897 1.536228 9.209846 0 .230246-.06145.452817-.107536.675389-.046087.222571-.207391.230246-.299565.353044s-13.971989.138148-17.267196-2.839703c-3.295208-2.97785-8.30331 7.268104-8.30331 7.268104s-5.008101.967034-6.006649 0-6.874618-.138148-6.874618-.138148c-2.391634-2.120176-5.498756-3.2556-8.695048-3.177397-1.955125-1.485211-4.112184-2.684323-6.406068-3.56114l-.153623-.053724c-1.007004-.365324-2.082871-.501664-3.149266-.399094 0 0-6.874618-5.679405-8.879395-8.718654s-11.521706-14.344335-11.590836-14.398059v-.544916l-.107536-1.650098c-.281755.047834-.566832.073496-.852606.076749-.053768-.161172-.115218-.353044-.192029-.567941-.550873-1.604294-1.228964-3.162118-2.02782-4.658647 0 0 0-2.072215.60681-2.594106.60681-.521892-.253478-8.135364-.253478-8.135364s-6.190997-14.467134-11.736778-3.668589c0 0-10.484752 6.991808-1.682169 15.127172 0 0 3.51028 1.696147 4.001873 3.069949.330289.874935 1.536227 3.315544 2.304341 4.934942l.361013.729113-.099854.084424.130579 1.358452.053768.521891c-1.659126.94401-2.780572 1.872669-2.511732 2.578757.489289 1.199356.827296 2.454892 1.006229 3.737663 0 0 12.120835 15.196246 13.695468 21.719887 0 0 32.637152 19.379051 43.375382 20.760528l-1.858835 9.693363c-.277523 2.620906-.42109 5.254249-.430143 7.889768.13826 2.079891-1.290432 11.512308-1.290432 11.512308s-1.858835 13.814769-3.433468 15.779536-1.252025 10.230604-1.252025 10.230604c-.379412 3.97602-1.098948 7.912264-2.150719 11.765579-1.536227 5.264962-.430143 11.773253-.430143 11.773253s-5.438246 12.456317 7.588963 4.013958c0 0 6.398388-.399093 13.764598-.652364v.767487c0 .944009 0 1.972442-.046087 3.069949-.099854 7.137631-.13826 16.969141.184348 24.413767.576085 13.147055 4.608682 39.18022 4.608682 39.18022v13.047282c-.25588 1.229316-.382028 2.482054-.376376 3.737663-.088172 4.609827 1.134375 9.150054 3.525642 13.093331l1.006229 8.718654s2.350429 5.748479 2.396515 9.209846c-.011094.281054-.044484.560785-.099854.836562-.088576.439392-.127226.887371-.115218 1.335427-.130579 3.960234 2.258255 13.431026 2.258255 13.431026s.13826 9.555215 1.536227 10.107806c1.221301.475842-1.636082 5.510558-2.488688 6.953434 0-.092099 0-.184197-.053768-.276296l-.176666.291645c-.295689.769057-.446723 1.586056-.445506 2.40991-.164536 1.333367.454493 2.642128 1.589995 3.361594 2.719123 1.657772 4.178539 3.069949 1.866517 3.599515-.848416.132809-1.689354.309569-2.519413.529566l-.122899-.322345c-.665416.270231-1.054605.9651-.937098 1.673122.016496 1.132797.309148 2.244495.852606 3.238796 2.304341 5.126815 3.840568 7.060882 3.840568 7.060882l1.106084-.122798c-.166944.416869-.380832.813398-.637534 1.181931-.417136.601431-.973034 1.093696-1.62072 1.435201-.59768.359785-1.265561.587465-1.95869.667714-1.570743.052701-3.045104.76975-4.055641 1.972442-1.428691 1.849644-2.304341 4.359327.499274 6.56969l10.238956 3.530441s17.605167 2.302461 16.675749-1.665447c-.929417-3.967909-1.536227-7.406252-1.536227-7.406252.072185-2.412184-.416874-4.808197-1.428692-6.999483-.185192-.355737-.393009-.699252-.622172-1.028432l.622172-.069074s1.290432-8.726329 3.003325-10.384102c.399419-.383743.491593-.675389.391738-.905635.176666-.475842-.26884-.767487-.844925-.913309l-.122898.345369c-.562847-.122614-1.136847-.186911-1.712894-.191872 0 0-.568404-4.566549 1.290431-6.224321.30335-.383361.434065-.875225.361014-1.358452.012976-.627189-.05152-1.253583-.192029-1.864994l-.06913.107448c-.937099-4.144431-4.109408-10.74482-4.109408-10.74482s-.145942-4.152106 1.006229-5.817553c1.15217-1.665447-.145942-22.564123-.145942-22.564123s.430144-10.107806-.860287-14.812503c-1.290431-4.704696 1.574633-10.245953 1.574633-10.245953s0-.115124 0-.306995l.038405-.069074s-.06913-.621665-.168985-1.588699v.092099c-.291883-2.670856-.837244-7.521375-1.236663-9.762437-.576085-3.185072.138261-18.419692.138261-18.419692l2.580862-6.508292 4.608682 11.220663 4.869841 14.95065s2.411878 3.154372 2.465646 6.354794c.011691.155837.011691.31233 0 .468167-.036648.333874-.054598.669533-.053768 1.005408-.085636 1.885436.433762 3.748904 1.482459 5.318686 0 0 1.290431 7.060882 3.295208 8.864477s2.004777 5.257288 2.004777 5.257288 2.427239 10.245953 3.57941 12.049548c.960142 1.534975 1.01391 5.68708 1.006229 6.961109v.376069s.33797 3.660913.322608 6.738537v1.097507c-.003618-.028025-.003618-.056399 0-.084424-.006287.840015-.106769 1.676681-.299565 2.494333 0 0 0 .092099-.046087.145823l.046087-.521891c-.515742 2.089226-.773696 4.233659-.768114 6.385493-.06913 3.683938.491593 8.043266 2.726804 10.598998 3.840569 4.436076 6.298533 3.883485 6.298533 3.883485s-1.858835 5.533583-4.155495 6.638764c-.085102.044746-.164964.098801-.238116.161172 0-.107448-.046087-.214896-.061449-.322344-.50339.56367-.745964 1.313085-.668259 2.06454-.168985 2.432935 1.367243 6.385494 2.83434 8.204438.538888.534173 1.205032.92244 1.935647 1.128206l-.361014.222572c-.249029.139171-.505445.264712-.768114.376068-.370246.162698-.764627.263805-1.167533.29932-1.572429.045877-3.049438.764214-4.05564 1.972442-1.428692 1.84197-2.304341 4.351653.499274 6.562016l10.238956 3.530441s17.48995 2.256412 16.560532-1.696147z" fill="url(#c)"/><path d="m464.776862 604.355786-9.977931-3.517226c-2.753599-2.202089-1.871828-4.702378-.487294-6.545098.967882-1.189416 2.409462-1.906124 3.952498-1.965059.678614-.079976 1.330985-.307123 1.910503-.665214.623879-.347495 1.154366-.837814 1.546966-1.429829.734784-1.143468 1.128841-2.468431 1.13702-3.823071 0 0 10.960254-3.17315 13.922694 0 .534017.573549.982044 1.219858 1.33039 1.919181.985235 2.192426 1.460979 4.575227 1.39227 6.973283 0 0 .564642 3.44841 1.461883 7.378528.89724 3.930117-16.188999 1.674505-16.188999 1.674505zm48.988388-4.01278-9.965757-3.517683c-2.750239-2.202375-1.87727-4.702989-.486699-6.538301.962055-1.195247 2.404688-1.913448 3.947675-1.965314.392819-.035352.776773-.136186 1.135633-.298238.266446-.105985.524656-.231226.772539-.37471 2.781141-1.529427 2.711613-5.238288 2.711613-5.238288s10.939156-3.173562 13.905706 0c.402532.426631.752612.898944 1.042928 1.407073 1.884996 3.211797 1.67641 7.494193 1.67641 7.494193s.556229 3.448858 1.4601 7.379486c.90387 3.930628-16.200148 1.651782-16.200148 1.651782z" fill="#2d293d"/><path d="m476.703721 585.629011c.520325.659707.956864 1.403106 1.296279 2.207481l-16 2.163508c.715944-1.31524 1.099897-2.839239 1.107866-4.397373 0 0 10.679228-3.623436 13.595855.026384zm49.296279-2.758551v3.133309c-2.477824 4.261301-14.505439 3.329141-18 1.190658.259755-.108565.51148-.236854.753138-.383831 2.711297-1.566655 2.643515-5.365792 2.643515-5.365792s10.664435-3.250809 13.556485 0c.402016.430412.753434.908986 1.046862 1.425656z" fill="#000" opacity=".1"/><path d="m528.398536 569.539087c-.755303 1.334724-1.401754 2.729202-1.932962 4.169645v10.982892c-2.75046 4.624375-17.083412 3.082917-19.016374.554925s-3.995807-9.032947-1.787799-10.142797 3.995807-6.674515 3.995807-6.674515-2.345531.554925-6.066292-3.892183c-3.720761-4.447107-2.620577-14.320149-1.925322-16.686288.695255-2.366138 0-10.289235 0-10.289235s.137523-5.556957-.970301-7.368171-3.445715-12.092742-3.445715-12.092742 0-3.475989-1.925322-5.287202c-1.925322-1.811214-3.170669-8.894216-3.170669-8.894216-1.135112-1.768744-1.629068-3.879014-1.39815-5.973151.420209-3.475989-2.337891-7.22944-2.337891-7.22944l-4.683422-15.013806-4.416016-11.260354-2.460134 6.528077s-.695255 15.291268-.137523 18.497501c.557732 3.206234 1.37523 11.676548 1.37523 11.676548s-2.7581 5.564665-1.528033 10.289235c1.230066 4.724571.825138 14.875075.825138 14.875075s1.237707 20.994664.137523 22.659439-.962661 5.842127-.962661 5.842127 5.646083 12.231473 3.820083 13.873127c-1.826 1.641653-1.245347 6.258321-1.245347 6.258321s3.820083 0 2.208008 1.664775-2.819222 10.451088-2.819222 10.451088l-16.663202 1.942238s-1.528033-1.942238-3.736042-7.090709c-2.208008-5.148471.412569-4.624375 2.635858-5.140764 2.223288-.516388.809857-1.949945-1.803079-3.61472-2.612937-1.664775-1.107825-5.395105-1.107825-5.395105s3.995807-6.813246 2.620578-7.375878c-1.37523-.562633-1.528034-10.142797-1.528034-10.142797s-2.7581-11.406792-2.070485-14.45888-2.208008-10.427967-2.208008-10.427967l-.962661-8.763191c-2.955205-4.963928-4.040046-10.835233-3.056066-16.539849v-13.510884s-3.820083-26.135428-4.408376-39.345727c-.351448-8.478021-.252126-20.000423-.137523-27.206742.068761-4.038621.137523-6.713051.137523-6.713051l59.555096-6.273736c.090989 2.999196.451555 5.983878 1.077263 8.917337.603574 3.298721 1.528034 7.568561 3.056067 12.909715 4.270853 15.291268 1.650276 26.690353 1.650276 26.690353l-.550092 19.329889s5.241154 12.925129 4.13333 17.379944c-.659492 2.638286-1.028452 5.341915-1.100184 8.061828 0 0 11.712375 28.224104 10.474668 36.424663s3.820083 21.133396 3.820083 21.133396 1.413431 9.187092.038201 11.691962z" fill="#575988"/><path d="m493 496.651839 18-2.651839s-10.19469 11.505289-18 2.651839z" fill="#000" opacity=".05"/><path d="m510.760558 478s.703477 6.537662-3.760558 9c.008685 0 7.998786-1.12987 3.760558-9zm-2.760558-21s-15.586888 12.990214-21.222691 11.939535c-5.635804-1.050679 21.222691-11.939535 21.222691-11.939535zm-37 46s-11.644825 2.517066-11.992778 6.969771c-.347953 4.452704 11.992778-6.969771 11.992778-6.969771z" fill="#000" opacity=".1"/><path d="m473.302728 561s-16.042451 3.119267-11.489049 5.201378c4.553403 2.082111 12.061994 3.797708 12.061994 3.797708s5.141424.280734-.572945-8.999086z" fill="#000" opacity=".05"/><path d="m13.7607273 156.232664c-.8242831-.52637-1.3686015-1.39894-1.4814546-2.374847l-.168.292052s-1.5272727 3.742882 1.0996364 5.379913c.3054545.192139.588.384279.8476364.568733.4887272-.092227 1.008-.161397 1.5272727-.284367 2.1992727-.537991.7941818-1.921397-1.8250909-3.581484zm20.9389091-1.114411c.4505454-.415022.4352727-1.483319.1603636-2.851353-.6640634 1.230888-.9834344 2.620209-.924 4.019563.1704925-.438907.4306502-.836896.7636364-1.16821zm-2.4970909-68.9704801c-.6018841 1.6382912-.9720485 3.3535761-1.0996364 5.0955459.31111-1.2050061.7329275-2.3782708 1.26-3.5046288 0 0-.0610909-.6225328-.1603636-1.5909171zm37.2425454-7.2782532c.1125909-.5042539.1638759-1.0204103.1527273-1.537118-.2061818 1.029869-.3512727 1.9905677-.4505455 2.8359826.0534546-.4073363.1527273-.8454149.2978182-1.2988646zm-37.6396364 56.5659393c.3164584-.992265.4560628-2.033037.4123637-3.074236-.4988726 1.235356-.7580857 2.555429-.7636364 3.888908.0846206-.2846.2025379-.558075.3512727-.814672zm3.4134546 26.138689c-.8561351 2.783111-1.4894323 5.630758-1.8938182 8.515634l-16.6549091 1.944454s-1.5272727-1.944454-3.7341818-7.070743c-.1909091-.453449-.3436364-.8531-.4658182-1.222008-1.0003636.461135-1.3898182 1.537118-.084 4.549869 2.2069091 5.126288 3.7265455 7.070742 3.7265455 7.070742l16.6778182-1.944454s1.2370909-8.73083 2.8865454-10.398603c.8018182-.814672.2825455-1.229694-.4581818-1.444891zm-22.008-24.893624s.1374545 9.568559 1.5272727 10.121921c.6949091-1.583231 1.1607273-3.074235.5421818-3.335545-1.3821818-.553363-1.5272727-10.121922-1.5272727-10.121922s-2.7490909-11.366987-2.0618182-14.418166c.6872728-3.051179-2.20690906-10.398602-2.20690906-10.398602l-.96218182-8.7308301c-2.95816954-4.9510851-4.04271486-10.8099076-3.05454546-16.5009607v-13.4497816s-3.81818181-26.0618341-4.40618181-39.1965066c-.35127273-8.4541485-.252-19.9825327-.13745455-27.130131 0-1.29886463.03818182-2.45170306.06109091-3.42008734l-.47345455.04611354s-.07636363 2.66689956-.13745454 6.70183406c-.12218182 7.17834064-.22145455 18.69135374.13745454 27.12244544.54981819 13.1731004 4.40618182 39.2349345 4.40618182 39.2349345v13.4497816c-.98816941 5.6910531.09637592 11.5498756 3.05454546 16.5009612l.96981818 8.67703s2.89418178 7.347424 2.20690908 10.398603 2.0618182 14.448908 2.0618182 14.448908zm49.0407273 31.61083c-1.3530785-1.971477-2.2530348-4.221431-2.6345455-6.586551-1.7029091 1.537118.252 7.539564 2.0847273 9.914411 1.9243636 2.490131 16.2501818 4.019563 19.0069091-.553362v-2.643843c-3.7265455 3.719825-16.6090909 2.228821-18.4570909-.130655zm20.9389091-15.663232c-.7605309 1.328036-1.4068834 2.719067-1.932 4.157904v1.929083c.3130909-.71476.7636363-1.660087 1.3821818-2.782183.4397921-1.086765.6454128-2.255094.6032727-3.427773-.0235862.038197-.0415889.079611-.0534545.122969zm-20.0912728 2.182708c.5254978-1.067367.9795986-2.168856 1.3592728-3.297118 0 0-2.3443637.553362-6.0632728-3.842795-2.7109091-3.227948-2.8636363-9.32262-2.4741818-13.303755-.6949091 2.35179-1.7945454 12.19703 1.9243636 16.631615 2.436 2.866725 4.2687273 3.627599 5.2538182 3.812053zm-7.1858182-30.742358c.2426414 2.7314.334419 5.474253.2749091 8.215895.0704986-.435299.1648239-.866348.2825455-1.291179.6949091-2.351791 0-10.252577 0-10.252577s.1374545-5.548995-.9621818-7.347423c-1.0996364-1.798428-3.444-12.066376-3.444-12.066376s0-3.4662006-1.9243637-5.2646286c-1.9243636-1.7984279-3.1690909-8.8768559-3.1690909-8.8768559-1.1315637-1.7647025-1.6200431-3.8697407-1.3821818-5.9563319.4123636-3.4662008-2.3367273-7.2090829-2.3367273-7.2090829l-4.6887272-14.979214-4.4061819-11.2286463-2.4818181 6.5173799s0 .8223581-.084 2.1058515l2.016-5.2953711 4.4061818 11.2286463 4.704 14.9792139s2.7567273 3.7428821 2.3443636 7.209083c-.2378613 2.0865912.2506181 4.1916293 1.3821818 5.9563319 0 0 1.2370909 7.0707423 3.1614546 8.8768559 1.9243636 1.8061133 1.932 5.2646283 1.932 5.2646283s2.3443636 10.260262 3.444 12.066376c1.0996363 1.806114.9316363 7.347424.9316363 7.347424z" fill="#000" opacity=".05" transform="translate(446 413)"/><path d="m512.751602 283.698208-1.05521 4.916128.062071 2.189096.046553 1.621276-5.842451.575292-.651747-1.165526c-1.210388-2.106912-3.716513-6.395449-4.531197-7.052925-1.078487-.874144-3.002694-14.55413-.690542-13.747227 1.41121.526318 2.569562 1.537915 3.250979 2.839101 0 0 11.475411 1.300009 9.411544 9.824785z" fill="#ffcdd3"/><path d="m513 292.394822-6.297491.605178-.702509-1.226074c1.748741-1.867473 4.655745-2.317859 6.949821-1.076745z" fill="#000" opacity=".1"/><path d="m513 295.048856-7.424299 1.951144-.149533-1.255519-.426168-3.393293s2.938318-4.445215 7.185047-1.111304l.366355 1.696647z" fill="#dce6f2"/><path d="m391 284.590566-7.944647 4.409434-.750202-1.552618c-.750203-1.638012-1.883009-4.106674-2.190592-4.991666-.472628-1.358541-3.788524-3.105236-3.788524-3.105236-8.319748-8.228874 1.59043-15.301048 1.59043-15.301048 5.251419-10.922666 11.095498 3.710757 11.095498 3.710757s.810219 7.708747.240065 8.228874-.577656 2.623924-.577656 2.623924c.761104 1.514968 1.403344 3.09077 1.920519 4.712195.277575.784072.405109 1.265384.405109 1.265384z" fill="#ffcdd3"/><path d="m390 284.367113-8.223469 4.632887-.776531-1.631298c1.157032-1.011405 5.280414-4.518697 6.631579-4.363724.646537.083456 1.299134.102573 1.949094.057096.287317.799336.419327 1.305039.419327 1.305039z" fill="#000" opacity=".1"/><path d="m391 286.316175-8.700244 4.683825-.175467-2.04269-.124289-1.412329s5.044679-4.715743 6.536149-4.540199c.753922.120173 1.51984.120173 2.273762 0l.095044 1.707562z" fill="#dce6f2"/><path d="m491 317.180247s-40.655924 4.539184-33.052514 2.099179c5.285583-1.70413 7.384155-5.027184 7.830493-8.722049.352373-3.098418-.446338-6.429219-1.519115-9.295256-.959273-2.537389-2.176639-4.971816-3.63335-7.265792 0 0 31.07923-16.90962 24.861818-1.549209-.95891 2.324111-1.553059 4.779562-1.761861 7.281284-.196588 2.482205.068822 4.979027.78305 7.36649 1.176215 3.892358 3.423825 7.384311 6.491479 10.085353z" fill="#ffcdd3"/><path d="m485.199584 292.382266c-.933368 2.29387-1.511691 4.717372-1.714931 7.186542-2.850597 2.400611-5.975582 2.240061-9.98471 2.240061-3.048767 0-6.493873.764525-8.963374-.764526-.933721-2.504373-2.11866-4.907125-3.536569-7.171252 0 0 30.251386-16.674307 24.199584-1.490825z" fill="#000" opacity=".1"/><circle cx="472.5" cy="286.5" fill="#ffcdd3" r="16.5"/><path d="m491 316.301832s-40.655924 4.343459-33.052514 2.008664c5.285583-1.63065 7.384155-4.810418 7.830493-8.345963 2.020268-2.075373 6.084294-3.572607 8.699679-4.365696 2.384718-.758547 4.959446-.797397 7.368495-.11118.94774.265901 1.849785.660366 2.678029 1.171103 1.17315 3.720152 3.415122 7.058648 6.475818 9.643072zm22-21.110321-7.842053 1.808489-.157947-1.163723c1.716686-2.346601 4.725616-3.371413 7.52616-2.563337zm-122-8.405978-8.822076 5.214467-.177924-2.274112c2.862447-1.840036 5.83622-3.419778 8.896211-4.725888zm116 130.333501c-15.418763 2.50203-37.373239 5.751522-40.855885 4.665736-2.884306-.904823-12.112551-.786802-20.144115-.527158.069039-4.122842.138078-6.853044.138078-6.853044l59.780307-6.404568c.09043 3.067012.452458 6.119245 1.081615 9.119034z" fill="#000" opacity=".1"/><path d="m521 413.828732s-50.544792 8.758567-55.973394 7.086967c-5.428603-1.6716-33.274049.138658-33.274049.138658-12.529306 8.473548-7.299218-4.028786-7.299218-4.028786s-1.099464-6.532335.412299-11.809044c1.027217-3.87026 1.732105-7.820349 2.107305-11.809044 0 0-.274865-8.342592 1.236897-10.283805 1.511763-1.941213 3.306027-15.845533 3.306027-15.845533s1.381964-9.444154 1.244531-11.554838c.005987-2.644936.143593-5.287902.412299-7.918915l1.786629-9.729173c-10.330378-1.38658-41.733812-20.844926-41.733812-20.844926-1.527033-6.524632-13.21647-21.815533-13.21647-21.815533-.170032-1.285776-.495683-2.545666-.969666-3.751471-.824598-2.218528 11.57491-6.663289 11.57491-6.663289s9.223279 11.39307 11.154976 14.45125 8.536114 8.750863 8.536114 8.750863c1.035031-.106848 2.080516.030276 3.054066.400568l.160339.046219c2.216631.884742 4.294597 2.088667 6.169213 3.574297 3.104832-.075326 6.116888 1.07117 8.398682 3.196838 0 0 5.650022-.831948 6.612052.138658.962031.970606 5.787455 0 5.787455 0s4.81779-10.283805 7.986383-7.294954 16.606484 2.850193 16.606484 2.850193c1.794264-2.403406 6.153943-4.128928 8.879697-5.014799 2.325832-.784817 4.835246-.825175 7.18469-.115549 1.015229.293329 1.973255.759677 2.832646 1.378878l8.154356 8.057573s2.343996-3.08129 2.06913-3.751471c-.274866-.67018 2.756295-1.247922 2.756295-1.247922s3.993191-1.255626 5.504953-1.6716c1.511763-.415974 2.901363 1.240219 3.054066 1.386581-.045811-.177175-1.084193-3.543484-.679529-6.108658s-1.656831-5.007096-1.656831-5.007096c4.825424-11.947702 15.705534-1.941212 15.705534-1.941212s1.236897 6.532334.137433 9.028179c-1.099463 2.495845 1.099464 7.78796.824598 9.174541-.274866 1.38658.549732 3.75147.549732 6.393676 0 2.642207-1.37433 7.6416-2.206563 9.860128-.832233 2.218529-7.43665 7.225625-7.43665 7.225625s-.412299 7.926619-3.306027 12.510037c-2.893727 4.583419-1.18345 20.290295-1.18345 20.290295s2.756294 12.25583 6.222659 16.176772c3.466365 3.920941 8.513209 26.090822 8.513209 26.090822z" fill="#656691"/><path d="m448.592238 322s-1.683423-4.303797-3.190087-4.694394c-1.509824-.48167-2.980487-1.049543-4.402151-1.699819l.976385-1.605787s5.698387 1.345389 6.615853 2.777577c.917465 1.432188 0 5.222423 0 5.222423zm-28.592238-9.949631c-.285018 1.547911-13 2.949631-13 2.949631l6.428745-7 .158344.060197c2.304046.986194 4.464181 2.330249 6.412911 3.990172z" fill="#000" opacity=".1"/><circle cx="385" cy="294" fill="#575988" r="1"/><circle cx="386" cy="296" fill="#575988" r="1"/><circle cx="388" cy="297" fill="#575988" r="1"/><circle cx="389" cy="300" fill="#575988" r="1"/><circle cx="519" cy="300" fill="#575988" r="1"/><circle cx="519" cy="302" fill="#575988" r="1"/><circle cx="519" cy="304" fill="#575988" r="1"/><path d="m449 360.000481c-.129347-.157312 30.904285 38.309317 55 16.083321 0 0-38.070771 5.063962-55-16.083321zm-19 19.999519s19.014886.509779 21 5.916525v5.630739c-1.098314.603648-2.43425.603648-3.532564 0-1.914775-1.027281-13.419055-6.797052-17.467436-4.024163z" fill="#000" opacity=".1"/><path d="m431 379s18.108949.510786 20 5.926738v5.618645c-1.047874.606156-2.321776.606156-3.36965 0-1.821011-1.021572-12.770428-6.802371-16.63035-4.053856z" fill="#656691"/><path d="m440 340c1.848823 4.344254 4.202587 8.448359 7.011152 12.224885 3.062571 4.173853 6.774117 7.813209 10.988848 10.775115 0 0-17.702602-20.470453-18-23zm-5-22s3.075758 13.431005 11 18zm-5.713818 2.003923c-.079419-.235778-2.859101 10.212143 10.713688 15.996077.031768 0-5.765854-1.819913-10.713688-15.996077zm81.718365-9.994305c-.199887 0 6.248298 4.775181 7.995453 6.990382 0 0-4.19021-7.300682-7.995453-6.990382z" fill="#000" opacity=".1"/><path d="m467.689032 300.223091c.132554.87947.593816 1.675868 1.290642 2.228378.479894.228645 1.004921.346802 1.536479.345783 5.031969.307362 10.26368.5302 14.911529-1.406183.880052-.301661 1.671815-.816419 2.304718-1.498392.829699-1.014297.983347-2.389744 1.321372-3.64993.645321-2.466584 2.035835-4.664225 3.072958-7.007864 1.685033-3.964445 2.248436-8.315815 1.628668-12.578809-.121572-1.308452-.550648-2.56963-1.252231-3.680666-1.336736-1.905647-3.764373-2.674053-5.531324-4.187813-1.766951-1.513761-2.896263-3.842031-4.955145-4.979272-1.859139-1.029665-4.125446-.90672-6.22274-.553253-4.140665.693776-8.109887 2.175383-11.692605 4.364547-1.190771.729986-2.504461 1.575233-3.841197 1.321659-1.206136-.230522-2.081929-1.244818-2.857851-2.189958-.979829 2.26162-1.401414 4.725791-1.229184 7.184598.061638.35852.061638.724933 0 1.083453-.173741.430898-.435387.820836-.768239 1.144925-1.244548 1.436919-2.02047 3.719086-.76824 5.171373.530086.637778 1.352102.98356 1.874505 1.629022.92957 1.160293.614591 2.82005.591544 4.310758-.052813.514907.077776 1.031936.368755 1.459972.546938.506997 1.319296.690654 2.035835.484096.701862-.209017 1.437672-.279482 2.166435-.20747.775049.254431 1.439406.767047 1.882187 1.452288 2.258624 2.95068 3.157464 6.201038 4.133129 9.758758z" fill="#2d293d"/><path d="m35.5226087 32.3595833c-.6385402.7001688-1.4460509 1.2304093-2.3478261 1.5416667-4.6956522 1.9425-10.0643478 1.7189583-15.1904348 1.4029167-.5423138.0085464-1.0788835-.1103653-1.5652174-.346875-.7116771-.5527063-1.1820172-1.3523869-1.3147826-2.2354167-.993913-3.56125-1.9095652-6.821875-4.2808695-9.781875-.451063-.6874057-1.12784645-1.2016403-1.91739134-1.456875-.74238322-.0760908-1.49271937-.005331-2.20695653.208125-.72279933.1955029-1.49689043.0121671-2.05043478-.485625-.29697937-.4320373-.42997765-.9532968-.37565217-1.4722917 0-1.4877083.34434782-3.1604166-.6026087-4.3166666-.53217391-.6552084-1.36173913-.994375-1.90956521-1.6341667-.71875555-.9646717-.84484215-2.2390921-.32869566-3.3222917-.89217391 1.4029167-1.28347826 3.2066667-.23478261 4.4322917.54.6397917 1.37739131.9866667 1.90956522 1.6341667.94695652 1.1639583.62608696 2.8289583.6026087 4.324375-.05380112.5165337.0792309 1.0351956.37565217 1.4645833.55716798.5085981 1.34397216.6928352 2.07391304.485625.71498984-.2096771 1.46456231-.2803649 2.20695653-.208125.78954489.2552347 1.46632838.7694693 1.91739134 1.456875 2.347826 2.96 3.2869565 6.220625 4.2808695 9.7895833.0056468.7311329.3220257 1.4264951.8723087 1.9172278.5502831.4907327 1.2841325.7319457 2.0233435.6650639 5.126087.3083333 10.4556522.531875 15.1904348-1.410625.896513-.3026136 1.7030854-.8189973 2.3478261-1.503125.3195169-.4022723.5657751-.8560812.7278261-1.34125-.0639201.068121-.1318642.1324688-.2034783.1927083zm-32.68956522-24.11166663c.23032389-.23816142.40641636-.52197712.51652174-.8325.06263726-.35966516.06263726-.72720984 0-1.086875-.14462739-2.02781204.12139615-4.06371419.78260869-5.989375l-.09391304-.10791667c-1.00232726 2.2675392-1.43197351 4.74050708-1.25217391 7.20729167.03908739.26797611.05479699.53875764.04695652.809375z" fill="#000" opacity=".1" transform="translate(454 267)"/><path d="m466 311.498799s20.18611 3.689033 22-.498799m18-9s11.472757 0 14 5" fill="#000" opacity=".1"/></g></svg>