<svg xmlns="http://www.w3.org/2000/svg" width="40" height="40" viewBox="0 0 40 40">
    <g fill="none" fill-rule="evenodd">
        <path fill="#FFF" fill-rule="nonzero" d="M20,1 C30.4934102,1 39,9.50658975 39,20 C39,30.4934102 30.4934102,39 20,39 C9.50658975,39 1,30.4934102 1,20 C1,9.50658975 9.50658975,1 20,1 Z" class="bg back"/>
        <path fill="#111" fill-rule="nonzero" d="M20,3 C29.3888407,3 37,10.6111593 37,20 C37,29.3888407 29.3888407,37 20,37 C10.6111593,37 3,29.3888407 3,20 C3,10.6111593 10.6111593,3 20,3 Z M20,5 C11.7157288,5 5,11.7157288 5,20 C5,28.2842712 11.7157288,35 20,35 C28.2842712,35 35,28.2842712 35,20 C35,11.7157288 28.2842712,5 20,5 Z M14,18 C15.1045695,18 16,18.8954305 16,20 C16,21.1045695 15.1045695,22 14,22 C12.8954305,22 12,21.1045695 12,20 C12,18.8954305 12.8954305,18 14,18 Z M20,18 C21.1045695,18 22,18.8954305 22,20 C22,21.1045695 21.1045695,22 20,22 C18.8954305,22 18,21.1045695 18,20 C18,18.8954305 18.8954305,18 20,18 Z M26,18 C27.1045695,18 28,18.8954305 28,20 C28,21.1045695 27.1045695,22 26,22 C24.8954305,22 24,21.1045695 24,20 C24,18.8954305 24.8954305,18 26,18 Z" class="border front"/>
    </g>
</svg>
