<?xml version="1.0" standalone="no"?>
<!DOCTYPE svg PUBLIC "-//W3C//DTD SVG 1.1//EN" "http://www.w3.org/Graphics/SVG/1.1/DTD/svg11.dtd" >
<svg xmlns="http://www.w3.org/2000/svg">
<metadata>Generated by IcoMoon</metadata>
<defs>
<font id="tlenter" horiz-adv-x="1024">
<font-face units-per-em="1024" ascent="960" descent="-64" />
<missing-glyph horiz-adv-x="1024" />
<glyph unicode="&#x20;" horiz-adv-x="512" d="" />
<glyph unicode="&#x41;" glyph-name="follow" d="M0 662l26 122h930l-26-120h-930zM156 508h740l-26-120h-740zM464 234h560l-26-122h-560z" />
<glyph unicode="&#x42;" glyph-name="playlist" d="M132 734h758c62 0 114 50 114 114 0 62-50 114-114 114h-758c-62-2-112-52-112-116 0-62 50-112 112-112zM892 562h-760c-62 0-112-50-112-114 0-62 48-114 112-114h758c62 0 114 50 114 114 0 62-50 114-112 114zM892 162h-760c-62 0-112-50-112-114s50-112 112-112h758c62 0 114 50 114 114s-50 112-112 112z" />
<glyph unicode="&#x43;" glyph-name="play" d="M956 704c-142 244-456 330-700 188s-330-456-188-700c142-244 456-330 700-188 244 138 328 452 188 700zM714 92c-198-112-448-46-562 152-112 196-46 448 152 560s448 46 562-152c112-196 46-448-152-560zM696 468l-270 158c-26 16-46 2-46-26v-310c0-30 20-42 46-26l266 154c28 12 28 34 4 50z" />
<glyph unicode="&#x44;" glyph-name="pin" d="M1002 598l-342 344c-14 24-50 24-74 0s-38-50-38-86c0-24 14-36 14-50l-246-194c-50 12-136-24-208-100-12-12-12-24-12-36s0-24 12-38l134-134-148-148c-12 0-12-10-12-10l-74-134c-12-24 0-50 12-62 14-14 26-14 38-14 10 0 24 0 10 12l136 74c12 12 12 12 12 12l148 146 134-134c12-24 50-24 74 0 60 62 122 148 96 208l198 246c50-24 98-14 134 24 28 24 28 48 2 74zM610 328l-208 208 220 184 160-160zM292 500l294-294c0 0-12-24-38-60l-330 330c36 12 60 24 74 24z" />
<glyph unicode="&#x45;" glyph-name="parameters" d="M960 580l-56 8c-4 12-8 24-14 36l28 44c24 30 22 74-6 102l-84 82c-14 10-32 20-52 20-18 0-32-6-44-14l-46-32c-10 6-24 10-34 14l-10 52c0 40-32 68-70 68h-120c-38 0-70-28-72-64l-10-56c-12-4-24-10-36-14l-44 28c-28 22-72 22-98-6l-82-82c-26-26-28-70-6-98l32-44c-6-12-10-24-14-36l-54-8c-40-2-68-34-68-72v-120c0-38 28-70 64-72l56-10c4-12 10-24 14-36l-28-44c-22-28-22-72 6-98l82-84c14-10 32-20 52-20 18 0 32 6 46 14l44 32c12-6 24-10 36-14l8-52c4-40 36-68 74-68h118c40 0 72 28 74 64l10 56c12 4 24 10 36 14l44-28c28-22 74-22 100 6l82 82c28 26 30 70 6 98l-32 44c8 12 10 24 16 36l52 8c38 4 68 36 68 74v118c-4 38-32 70-68 72zM862 388c-18-2-28-14-34-32-8-24-18-46-30-70-10-14-6-32 4-46l42-60-64-62-58 42c-14 12-36 12-50 4-24-12-46-24-70-30-18-2-30-18-32-34l-12-72h-88l-14 74c-4 18-14 30-32 36-24 6-46 18-70 28-14 10-32 6-46-2l-60-42-62 62 42 60c10 10 10 32 2 46-10 24-24 46-28 70-4 18-18 28-36 32l-70 12v88l70 10c18 4 30 14 36 32 6 24 18 46 28 70 10 16 6 32-2 48l-42 58 62 62 60-40c14-12 34-12 48-4 24 12 48 24 72 28 16 4 28 18 32 36l10 70h88l12-70c2-18 14-28 32-36 24-6 50-16 70-28 18-10 36-6 50 4l58 40 64-62-44-56c-12-14-12-34-4-50 12-24 24-46 30-70 2-18 18-28 34-32l72-10v-88zM512 668c-120 0-220-100-220-220s100-220 220-220c120 0 220 100 220 220s-100 220-220 220zM512 318c-70 0-130 60-130 130s60 130 130 130c70 0 130-60 130-130s-60-130-130-130z" />
<glyph unicode="&#x46;" glyph-name="mosaic" d="M280 928c0 20-16 32-32 32h-216c-20 0-32-16-32-32v-214c0-20 16-32 32-32h212c20 0 32 16 32 32zM650 928c0 20-16 32-32 32h-214c-18 0-32-16-32-32v-214c0-20 16-32 32-32h216c18 0 32 16 32 32v214zM1024 928c0 20-16 32-32 32h-212c-20 0-32-16-32-32v-214c0-20 16-32 32-32h212c20 0 32 16 32 32zM280 556c0 18-16 32-32 32h-216c-20 0-32-16-32-32v-214c0-18 16-32 32-32h212c20 0 32 16 32 32zM650 556c0 18-16 32-32 32h-214c-18 0-32-16-32-32v-214c0-18 16-32 32-32h216c18 0 32 16 32 32v214zM1024 556c0 18-16 32-32 32h-212c-20 0-32-16-32-32v-214c0-18 16-32 32-32h212c20 0 32 16 32 32zM248 212h-216c-20 0-32-16-32-32v-212c0-20 16-32 32-32h212c20 0 32 16 32 32v212c4 20-12 32-28 32zM620 212h-216c-18 0-32-16-32-32v-212c0-20 16-32 32-32h216c18 0 32 16 32 32v212c-2 20-14 32-32 32zM992 212h-212c-20 0-32-16-32-32v-212c0-20 16-32 32-32h212c20 0 32 16 32 32v212c0 20-16 32-32 32z" />
<glyph unicode="&#x47;" glyph-name="logout" d="M420 96c-4 2-4 8-4 8 0 4 0 4-4 4-4 4-6 4-6 4s-2 4-8 4c-4 0-8 0-8 0h-204c-30 0-54 8-74 30-20 20-30 46-30 74v458c0 30 10 54 30 74s46 30 74 30h210c4 0 8 4 12 6s4 8 8 12c0 4 4 10 4 16 0 4 0 10 0 18s0 10 0 12c0 6-4 10-6 16-4 6-10 6-16 6h-210c-50 0-96-18-132-56s-56-82-56-134v-458c0-52 18-98 56-134 36-34 82-56 132-56h210c6 0 10 4 14 6 2 2 4 8 8 12 0 4 2 10 2 16 0 4 0 10 0 18-2 6-2 10-2 14zM1012 478l-356 356c-8 8-18 12-28 12s-22-4-32-12c-8-8-12-18-12-30v-190h-290c-10 0-20-4-30-12-8-8-12-18-12-30v-252c0-10 4-20 12-28s18-14 30-14h292v-188c0-10 4-22 12-30s18-12 30-12c10 0 22 4 30 12l354 356c8 8 14 18 14 28-2 16-6 26-14 34z" />
<glyph unicode="&#x48;" glyph-name="like" d="M920 642c-34 10-100 10-194 10h-44c2 22 2 46 2 78 0 114-86 226-172 226-62 0-114-50-114-112 0-56-14-152-110-204-4 0-12-6-18-10-20 14-42 22-62 22h-94c-62 0-114-52-114-114v-490c0-62 52-114 114-114h92c38 0 72 18 94 48 20-2 54-10 120-26 10-4 98-22 188-22h168c60 0 104 24 132 80 0 0 8 14 14 36 2 14 6 34 2 50 32 28 42 60 48 80 10 32 10 56 4 84 20 24 34 52 38 86 4 24 0 48-10 72 10 26 20 50 20 74v6c0 4 0 6 0 14 0 46-34 104-104 126zM786 328c-22 0-38-18-38-38 0-22 16-38 38-38h58c12 0 18-4 22-8 2-6 6-14 0-30v-2c-6-28-12-40-56-40h-52c-20 0-38-16-38-38 0-20 18-38 38-38h48c6 0 10 0 10-4 4-2 4-8 4-10-4-10-8-18-8-18-2-6-8-14-34-14h-168c-80 0-166 18-166 18-122 26-134 30-140 32h-4c-2 0-8 4-8 8v418c0 4 2 6 8 10l10 4c176 72 198 238 198 306 0 0 0 10 8 10 16 0 66-52 60-114 0-68-4-80-28-152l-8-30h30c282 0 298-4 320-10h2c16-2 22-12 22-24 0-6 0-6 0-10v-8c0-10-4-24-38-24h-60c-20 0-38-18-38-40 0-20 18-38 38-38h60c8 0 16 0 20-6 6-10 6-18 6-24-6-34-18-48-44-48zM220 138c-12 18-32 28-56 28-22 0-40-10-54-26v398c0 6 4 10 10 10h92c8 0 10-4 10-10v-400zM158 100c0 2 4 6 6 6 4 0 8-4 10-6-2-10-16-10-16 0zM110 56c6-6 14-12 20-18h-10c-6 0-10 4-10 10zM220 60v-12c0-6-2-10-8-10h-16c12 6 18 14 24 22z" />
<glyph unicode="&#x49;" glyph-name="right-arrow" d="M784 402l-444-446c-28-28-72-28-100 0-28 30-28 72 0 102l388 390-388 390c-28 30-28 72 0 102 28 28 72 28 100 0l444-444c12-12 22-32 22-50 0-14-6-34-22-44z" />
<glyph unicode="&#x4a;" glyph-name="search" d="M998 82l-224 222-2 4c42 64 68 146 68 232 2 232-188 420-420 420s-420-188-420-420c0-232 188-422 420-422 86 0 168 26 232 70l226-226c36-36 88-36 122 0 32 32 32 84-2 120zM420 262c-152 0-276 124-276 278 0 152 124 276 276 276 154 0 278-124 278-276-6-154-126-278-278-278z" />
<glyph unicode="&#x4b;" glyph-name="share" d="M762 194c-30 0-52-22-52-52v-26h-608v432h86c32 0 52 20 52 50s-22 52-52 52h-136c-32 0-52-22-52-52v-528c0-30 22-50 52-50h708c30 0 52 20 52 50v74c0 30-18 50-50 50zM1012 588l-274 274c-10 10-22 16-36 16-26 0-50-22-50-50v-110c-140-10-252-56-334-138-124-120-126-280-126-298 0-28 22-52 52-52 20 0 34 8 42 22 66 120 246 138 350 138h16v-112c0-28 24-50 52-50 12 0 26 4 36 16l274 274c8 8 14 22 14 36-4 8-4 20-16 34zM706 486h-2c-10 0-36 4-72 4-70 0-198-8-302-64 16 30 34 58 58 82 72 68 178 106 312 106 32 0 52 22 52 52v38l152-152-152-156v40c0 28-20 48-46 50z" />
<glyph unicode="&#x4c;" glyph-name="shoes" d="M226-62c82-8 148 36 184 106 40 80 30 172 22 256-8 88-20 180-12 266 8 116 48 166 40 256-10 84-80 136-164 138s-140-58-158-134c-20-90-10-182-30-270-26-112-64-164-80-248-16-80-16-168 22-242 34-70 98-122 176-128zM74 318c10 48 34 86 46 134 20 68 34 140 40 210 4 56 2 120 24 172 20 48 70 78 124 76 38-2 76-26 96-58 16-28 16-62 10-94-10-52-20-104-26-156-14-102-14-194 6-294 6-30 10-78-18-100-56-48-164-32-226-8-44 20-90 66-76 118zM592 300c-8-84-18-176 22-256 36-70 104-114 184-106 78 8 142 60 176 130 38 72 38 160 22 240-16 84-54 136-80 248-20 92-10 184-32 272-16 76-72 136-158 134-82-2-154-54-162-138-10-90 30-140 40-256 8-90-4-180-12-268zM620 852c22 34 58 56 96 58 54 4 104-26 124-76 22-54 20-116 24-172 6-70 20-142 40-210 12-46 36-86 46-132 14-52-32-100-76-118-62-26-170-42-226 6-28 22-24 70-18 100 20 100 20 192 6 294-6 52-16 104-26 156-6 32-8 66 10 94z" />
<glyph unicode="&#x4d;" glyph-name="simple-play" d="M170 956c10 4 16 4 26 4s16 0 24-4l634-460c16-12 28-26 28-48 0-20-12-36-28-48l-632-456c-16-12-36-12-52 0-16 10-26 26-26 48v916c0 20 10 36 26 48z" />
<glyph unicode="&#x4e;" glyph-name="star" d="M1004 610l-190-228c-6-6-8-12-6-18l60-268c4-20-2-42-20-52-8-8-20-14-30-16-8 0-18 0-28 2l-250 90c-2 0-2 0-2 0-6 0-8-2-14-4l-242-168c-8-8-16-8-28-10s-26 2-36 8c-20 12-30 34-28 58l42 280c0 8 0 8-2 8l-202 166c-16 12-24 34-18 52 2 22 18 38 38 44l272 84c2 2 6 2 8 6 2 2 6 8 8 10l112 270c8 20 28 32 48 36h4c22 2 42-10 52-28l130-232 4-2 272 2c22 0 44-12 54-32 8-16 4-40-8-58z" />
<glyph unicode="&#x4f;" glyph-name="tchat" d="M1024 372c0 136-112 254-278 288-22 144-182 260-372 260-204 0-374-134-374-298 0-82 42-156 112-214l-22-126c-4-20 4-38 18-48 8-6 20-8 30-8 8 0 18 2 22 6l126 68c42-134 192-226 364-226 10 0 22 2 34 2l176-96c8-2 16-6 24-6s18 4 30 8c14 8 22 30 18 48l-20 128c72 56 112 134 112 214zM212 426c2 18-6 40-24 50-58 36-92 94-92 150 0 110 124 200 276 200s274-90 272-200c0-110-122-200-274-200-14 0-30 0-40 2-12 0-20 0-30-6l-100-52zM808 172l12-56-102 54c-8 2-18 4-26 4-2 0-2 0-6 0-14-2-28-2-40-2-126 0-238 64-266 154 170 4 318 100 352 234 112-28 190-104 190-188 0-56-34-112-94-150-16-10-24-30-20-50z" />
<glyph unicode="&#x50;" glyph-name="talent" d="M500 200c-44-90-96-142-142-142-42 0-50 34-50 74v0c0 22 8 50 10 68l106 484h126l12 56h-126l48 220h-162l-48-220h-54l-12-54h52l-96-458c-6-32-14-74-14-114 0-88 30-174 142-178 0 0 4 0 6 0s2 0 4 0c52 2 122 28 186 130 72 106 12 134 12 134zM868 382c6 6 6 12 2 16-2 6-10 10-14 10h-76l-36 64c-2 4-10 10-14 10-6 0-12-6-14-10l-32-76h-2l-2-2-76-26c-4-2-8-6-10-12 0-4 0-10 4-16l56-46c0 0 0 0 0-2l-10-80c0-6 2-10 8-16 0 0 6 0 8 0 4 0 6 0 8 0l68 48h2c0 0 0 0 2 0l72-24c0 0 4 0 6 0s6 0 10 4c4 4 6 10 4 16l-16 74c0 2 0 4 2 4z" />
<glyph unicode="&#x51;" glyph-name="angel" d="M504 740h-342l-12-56h342zM530 866h-426l-12-56h426zM562 612h-256l-14-54h258zM794 684h126l12 56h-126l46 220h-162l-48-220h-54l-12-56h52l-98-456c-6-32-14-76-14-114 0-88 30-174 140-178 2 0 4 0 6 0s2 0 6 0c50 2 120 28 186 126 72 110 10 136 10 136-44-90-92-144-140-144-42 0-52 36-52 74v2c0 22 10 50 12 68z" />
<glyph unicode="&#x52;" glyph-name="download" d="M888 108h-752c-46 0-84-40-84-86s38-84 84-84h754c46 0 84 38 84 84-2 46-40 86-86 86zM450 200c16-16 34-24 56-26 2 0 4 0 6 0 4 0 4 0 6 0 22 2 40 10 56 26l270 270c34 34 34 88 0 124-32 34-88 34-120 0l-126-126v408c-2 46-40 84-86 84s-84-38-84-84v-408l-126 126c-34 34-88 34-122 0-32-34-32-88 0-124z" />
<glyph unicode="&#x53;" glyph-name="earth" d="M874 810c96-96 150-226 150-362s-52-266-150-362c-96-96-226-150-362-150s-266 52-362 150c-98 96-150 226-150 362s52 266 150 362c96 98 226 150 362 150s266-52 362-150zM828 132c64 62 106 142 122 226-12-18-26-26-34 18-8 72-74 26-116 52-44-32-142 56-126-42 26-46 140 58 82-36-36-66-132-210-120-286 2-110-112-22-152 12-24 74-8 200-78 238-74 2-138 10-168 94-18 60 20 148 84 164 94 58 128-70 216-72 26 28 102 38 108 70-58 10 74 48-4 70-44-4-72-44-48-78-86-20-86 122-168 76-2-70-134-22-46-8 32 14-48 52-6 46 22 0 92 24 72 42 40 24 72-58 110 2 28 46-10 54-46 32-20 20 34 68 82 88 16 6 30 12 44 10 24-28 68-32 70 2-60 30-126 44-194 44-98 0-190-30-268-88 22-10 32-20 14-36-16-48-78-108-134-100-28-50-48-104-56-160 48-16 56-44 48-56-24-20-40-50-46-82 14-90 58-176 126-242 84-86 196-132 316-132s232 46 316 132z" />
<glyph unicode="&#x54;" glyph-name="community" d="M896 412c-10 2-16 8-18 20 38 20 56 64 56 124 0 74-52 136-118 136s-118-62-118-136c0-58 20-104 56-124-2-12-8-18-18-20-52-14-84-32-104-56-22 6-38 16-42 46 52 26 80 86 80 166 0 100-70 182-156 182s-158-82-158-182c0-80 30-140 80-166 0-30-20-42-40-46-20 26-52 42-104 56-10 2-16 8-18 20 36 20 56 64 56 124 0 74-54 136-118 136-66 0-120-62-120-136 0-58 22-104 56-124-4-12-8-18-20-20-96-24-128-60-128-144 0-12 10-22 20-22h220c-10-26-12-54-12-80 0-10 10-20 22-20h524c12 0 22 10 22 20 0 26-2 54-12 80h220c10 0 20 10 20 22 0 84-32 120-128 144zM44 290c2 42 20 64 96 82 24 6 52 28 48 74 0 8-6 16-12 20-38 14-44 68-44 90 0 52 34 94 78 94 42 0 76-44 76-94 0-24-4-76-42-90-8-4-14-10-14-20-2-46 24-68 50-74 32-8 54-18 68-28-38-14-64-32-84-52 0 0 0 0 0-2zM270 188c2 26 6 48 20 66 0 0 2 2 2 2 18 28 56 44 120 60 16 4 68 24 64 98 0 8-6 16-12 20-42 16-66 66-66 134 0 78 52 140 116 140s114-62 114-140c0-68-24-118-64-134-8-4-14-10-14-20-2-74 48-92 64-98 110-26 138-58 142-130h-486zM762 290c-20 22-46 40-86 54 16 12 38 20 70 28 26 6 52 28 50 74 0 8-8 16-14 20-38 14-42 68-42 90 0 52 32 94 76 94 42 0 76-44 76-94 0-24-4-76-42-90-8-4-14-10-14-20 0-46 24-68 50-74 76-20 94-40 96-82z" />
<glyph unicode="&#x55;" glyph-name="house" d="M36 360h82v-334c0-20 16-36 36-36h244c20 0 36 16 36 36v246h148v-244c0-20 16-36 36-36h232c18 0 34 16 34 36v332h102c14 0 26 10 32 22 4 14 2 30-8 38l-462 474c-16 14-38 14-50 0l-486-472c-12-10-16-26-8-40 4-12 16-22 32-22zM522 818l380-386h-50c-20 0-36-16-36-36v-334h-162v246c0 18-16 34-34 34h-222c-18 0-34-16-34-34v-246h-174v334c0 20-16 36-34 36h-32z" />
<glyph unicode="&#x56;" glyph-name="project" d="M524 756c-150 0-272-120-272-272 0-62 22-120 58-168 8-8 16-18 22-26 24-28 46-52 52-80 0 0 2-6 2-28v-2c0-16 0-40 16-56 10-12 26-18 48-18h146c24 0 40 6 52 18 14 16 14 34 12 48 0 2 0 6 0 8 0 20 2 24 2 24 8 30 34 58 54 84 8 8 16 18 22 26 38 48 58 106 58 168 0 154-120 274-272 274zM696 350c-6-8-12-16-20-24-24-30-56-66-64-104-2-6-4-16-4-42 0-2 0-6 0-8 0-4 0-6 0-8-2 0-4 0-10 0h-146c-6 0-8 0-8 0 0 4 0 12 0 16v4c0 26-2 36-4 42-12 40-38 72-64 100-8 8-14 18-20 26-32 38-48 84-48 134 0 120 98 218 218 218s218-98 218-218c-2-50-18-98-48-136zM592 84h-136c-28 0-52-24-52-54v-40c0-28 24-52 52-52h136c28 0 52 24 52 52v40c0 30-24 54-52 54zM590-10h-130v38h130zM524 792c16 0 28 12 28 28v112c0 14-12 26-28 26-14 0-26-12-26-26v-112c0-16 10-28 26-28zM886 834c-10 10-26 10-38 2l-84-80c-10-12-10-28 0-40 4-6 12-8 18-8s14 4 20 8l82 80c12 8 12 26 2 38zM968 558h-108c-14 0-26-12-26-26 0-16 12-28 26-28h108c14 0 28 12 28 28s-14 26-28 26zM272 724c12 10 10 28-2 38l-82 80c-10 10-28 10-40-2-8-10-8-28 2-38l84-80c4-6 12-8 18-8 8 2 16 2 20 10zM164 558h-108c-14 0-28-12-28-26 0-16 14-28 28-28h108c14 0 26 12 26 28 2 14-10 26-26 26z" />
<glyph unicode="&#x57;" glyph-name="private" d="M780 560v132c0 148-120 268-268 268s-268-120-268-268v-132c-48 0-88-40-88-90v-444c0-50 40-90 88-90h536c48 0 88 40 88 90v444c0 50-40 90-88 90zM334 692c0 98 80 178 178 178s178-80 178-178v-132h-356zM780 26h-536v444h536zM468 216v-58c0-24 18-44 44-44 24 0 44 18 44 44v58c28 16 46 44 46 76 0 50-40 90-90 90s-90-40-90-90c0-32 20-62 46-76z" />
<glyph unicode="&#x58;" glyph-name="ok" d="M430 654c-22 24-50 40-80 52s-62 18-96 18c-34 0-68-6-98-18s-58-28-80-52c-24-22-42-52-56-86s-20-74-20-120c0-46 6-86 20-120s32-64 56-86c22-24 50-40 80-52s64-18 98-18c34 0 66 6 96 18s58 28 80 52c22 22 42 52 54 86 14 34 20 74 20 120s-6 86-20 120c-12 34-32 64-54 86zM414 360c-8-26-20-48-34-66-16-18-34-32-56-42-20-10-44-16-72-16-26 0-50 6-72 16s-40 24-56 42c-14 18-26 40-34 66s-12 56-12 88c0 32 4 62 12 88s20 48 34 66c16 18 34 32 56 42s46 16 72 16c28 0 52-6 72-16 22-10 40-24 56-42 14-18 26-40 34-66s12-56 12-88c0-32-4-62-12-88zM972 258c-20 28-42 54-66 78-22 26-46 50-72 72-24 22-46 42-68 56 18 20 38 38 60 60s42 44 64 66c22 22 42 44 62 64 20 22 38 40 54 58h-90c-12-14-28-32-46-52s-38-40-60-62c-20-20-42-42-62-62-22-22-42-40-60-58v234h-74v-528h74v250c22-12 44-28 66-48 24-18 46-38 68-62 22-22 42-44 62-68s38-48 54-72h86c-14 24-30 48-52 74z" />
<glyph unicode="&#x59;" glyph-name="marketplace" d="M817.36 892.704c4.336 10.848-0.736 23.504-11.92 28.192l-91.728 37.568c-11.184 4.336-23.84-0.72-28.16-11.92l-23.84-58.144 131.808-53.808 23.84 58.112zM777.731 795.596l-154.343-377.437-132.028 53.989 154.343 377.437 132.028-53.989zM503.872 314.864l103.648 64.64-131.824 53.808zM885.968 764.88h-74.032l-32.88-80.176h70.816v-668.528h-672.128v668.528h353.936l32.864 80.176h-426.528c-24.208 0-40.080-20.24-40.080-40.096v-748.704c0-24.192 20.224-40.080 40.080-40.080h747.6c24.56 0 40.096 16.24 40.448 40.448v748.336c0 24.192-20.24 40.096-40.096 40.096z" />
<glyph unicode="&#x61;" glyph-name="24h" d="M338 292c0 96 124 112 124 166 0 24-18 36-40 36-30 0-48-32-48-32l-36 24c0 0 24 54 88 54 46 0 86-30 86-80 0-84-120-100-120-150h124v-42h-176c-2 10-2 18-2 24zM544 368l116 168h56v-158h36v-40h-36v-70h-48v70h-124zM668 380v82c0 14 2 28 2 28s-6-14-12-24l-62-86h72zM902 392l-10-34c-52-188-244-308-434-260-182 46-296 224-270 402l56-16c12-2 24 8 20 22l-60 234c-2 12-18 16-28 8l-172-168c-8-10-4-26 8-30l60-16c-44-244 106-486 352-550 254-68 516 92 586 346l10 32c2 10-4 18-12 20l-84 22c-8 2-18-2-22-12zM1002 538l-86-12c-10-2-16-10-16-18l4-26c2-10 10-16 20-14l86 10c10 2 16 10 14 20l-4 26c0 8-8 16-18 14zM934 702l-76-42c-8-6-12-16-6-24l12-24c4-8 14-10 24-6l76 44c8 4 12 14 8 24l-14 22c-4 8-16 12-24 6zM812 828l-56-68c-6-8-4-18 4-24l20-16c8-6 18-4 24 4l56 68c6 8 4 18-4 24l-20 16c-8 6-20 4-24-4zM648 900l-24-82c-4-10 4-20 12-22l24-8c10-2 20 4 22 12l26 84c2 10-4 20-12 22l-26 6c-10 4-18-2-22-12zM470 908l8-88c2-10 10-16 20-16l26 2c10 2 16 10 16 20l-8 86c-2 10-10 16-20 16l-28-4c-8 0-14-8-14-16zM304 846l40-78c4-8 14-12 24-8l24 12c8 6 12 16 8 24l-40 80c-4 8-14 10-22 8l-24-14c-10-6-14-16-10-24z" />
<glyph unicode="&#x62;" glyph-name="follow-plus" d="M512 960c-282 0-512-228-512-512s228-512 512-512c284 0 512 228 512 512s-230 512-512 512zM512 68c-212 0-384 170-384 384 0 212 172 384 384 384s384-172 384-384c-4-214-174-384-384-384zM696 516h-118v120c0 36-32 64-66 64-36 0-66-32-66-64v-120h-118c-36 0-66-30-66-64 0-38 32-66 66-66h118v-118c0-38 30-66 66-66s66 30 66 66v118h118c36 0 66 32 66 66 0 32-28 64-66 64z" />
<glyph unicode="&#x63;" glyph-name="plus" d="M890 582h-244v244c0 74-62 134-134 134-76 0-134-60-134-134v-242h-244c-74-2-134-60-134-136s60-134 134-134h242v-242c0-76 62-134 134-134 76 0 134 58 134 134v242h242c76 0 134 58 134 134 4 76-56 134-130 134z" />
<glyph unicode="&#x64;" glyph-name="toggle-down" d="M1006 748c-14 12-26 22-46 22h-898c-18 0-36-10-46-22-22-28-22-74 0-102l450-498c22-28 64-28 90 0v4l450 494c24 28 24 74 0 102z" />
<glyph unicode="&#x65;" glyph-name="trophy" d="M820 812c0 32 0 52 0 52h-616c0 0-2-20 0-52h-204v-32c0-8 2-190 112-288 46-40 104-62 172-62 10 0 22 0 32 2 40-52 84-90 136-108v-148h-150v-92h-50v-52h516v52h-50v92h-148v148c50 18 96 56 134 108 12-2 20-2 32-2 68 0 126 22 172 62 112 100 112 280 112 288v32zM156 542c-64 56-82 152-88 204h138c6-64 20-142 52-212 6-12 10-24 18-36-48 2-88 16-120 44zM868 542c-32-26-72-42-120-44 8 10 14 24 18 36 32 70 46 150 52 212h138c-8-52-26-148-88-204z" />
<glyph unicode="&#x66;" glyph-name="portfolio" d="M1010 428l-10 8v314c0 38-28 68-68 68h-322l-10 10c-10 18-38 18-58 0-10-10-10-10-10-10h-48c-8 10-8 10-8 10-10 18-40 18-58 0l-10-10h-322c-38 0-66-30-66-68v-304l-10-10c-10-8-10-18-10-28s0-20 10-28c0-10 10-10 10-10v-248c0-38 28-68 66-68h848c38 0 68 38 68 58v248c10 10 10 10 10 10 16 10 16 38-2 58zM914 732v-200l-208 200zM914 408v-268h-800v268l334 324h134zM116 532v200h208z" />
<glyph unicode="&#x67;" glyph-name="geoloc" d="M512 736c-88 0-160-72-160-160s72-160 160-160c88 0 160 72 160 160s-72 160-160 160zM512 512c-36 0-64 28-64 64s28 64 64 64c36 0 64-28 64-64s-28-64-64-64zM512 960c-212 0-384-172-384-384 0-76 22-148 60-208l256-396c16-22 40-36 68-36s52 14 68 36l256 396c38 60 60 132 60 208 0 212-172 384-384 384zM754 420l-242-376-242 376c-30 48-46 100-46 156 0 158 130 288 288 288s288-130 288-288c0-56-16-108-46-156z" />
<glyph unicode="&#x68;" glyph-name="add-friend" d="M972 366h-324c-30 0-52 26-52 54 0 26 24 52 52 52h324c30 0 52-26 52-52 0-28-22-54-52-54zM812 204c-32 0-54 24-54 52v326c0 30 26 54 54 54 30 0 52-26 52-54v-322c0-32-26-56-52-56zM324 798c88 0 162-74 162-162 0-90-74-164-162-164-90 0-164 74-164 164 4 90 76 162 164 162zM324 906c-150 0-272-122-272-270 0-150 120-270 270-270 148 0 268 120 268 270 0 148-116 270-266 270zM324 204c108 0 178-42 204-80-36-14-108-30-204-30-108 0-176 18-206 30 24 40 94 80 206 80zM324 314c-204 0-324-108-324-216 0-54 120-108 324-108 190 0 322 54 322 108 2 106-124 216-322 216z" />
<glyph unicode="&#x69;" glyph-name="angel-wording" d="M1014 860c-2 12-10 22-20 26-12 4-24 2-32-8-116-112-274-164-358-186 32 24 52 64 52 108 0 80-64 144-144 144s-144-64-144-144c0-44 20-84 52-108-84 20-242 74-358 186-8 8-20 12-32 8-10-4-18-14-20-26-22-128-32-414 254-502-20-74-32-144-32-190 0-156 124-216 280-216s280 60 280 216c0 46-12 116-32 190 286 88 276 374 254 502z" />
<glyph unicode="&#x6a;" glyph-name="guess" d="M476 162c-32 0-58-12-80-32-24-22-34-48-34-82s10-60 34-82c22-20 48-32 80-32s58 10 80 32c24 22 32 48 32 82s-10 60-32 82c-22 20-48 32-80 32zM772 800c-8 28-24 54-46 78s-50 44-88 60c-36 16-82 24-140 24-48 0-94-6-138-18s-84-28-120-48l48-132c34 18 64 32 94 40s62 12 94 12c44 0 76-10 96-30 22-22 32-46 32-78 0-22-4-42-16-62-10-18-24-36-40-56-16-18-32-34-50-54-20-18-36-36-52-58-16-20-28-42-40-68-10-24-16-54-16-84 0-10 0-18 2-30s2-20 4-30h148c-2 6-2 10-2 18 0 6 0 10 0 16 0 28 6 54 18 76s28 44 44 64c18 20 38 40 58 60 22 18 40 40 58 62s34 44 44 70c12 26 18 54 18 86 2 26-2 54-10 82z" />
<glyph unicode="&#x6b;" glyph-name="profile" d="M512 960c-284 0-512-228-512-512s228-512 512-512c284 0 512 228 512 512s-228 512-512 512zM512 32c-230 0-416 186-416 416s188 416 416 416c230 0 416-188 416-416 0-230-186-416-416-416zM516 478c92-2 170 74 170 166 2 94-74 172-166 172-94 2-172-74-172-166 0-94 74-170 168-172zM612 394l-196 2c-96 2-172-72-174-168 0-20 8-40 24-54 64-58 150-92 242-92 94-2 180 32 248 86 16 14 24 34 24 54 4 94-72 172-168 172z" />
<glyph unicode="&#x6c;" glyph-name="profile-card" d="M500 374h-24c-14 0-24 10-24 22 0 6 4 10 6 14 14 14 26 34 34 52 4-2 4-2 6-2 14 0 30 30 30 52 0 20-4 38-14 38-4 0-4 0-6 0 0 58-14 130-104 130s-100-70-104-130c-2 0-2 0-2 0-14 0-14-18-14-38s14-52 30-52c2 0 2 0 4 2 8-20 22-38 36-52 2-4 4-8 4-14 0-12-10-22-22-22h-26c-52 0-96-42-96-96v-26c0-18 14-32 30-32h322c18 0 30 14 30 32v26c0 54-42 96-96 96zM788 636h-270c8-16 14-38 14-64 6-4 10-10 14-16h240c12 0 22 10 22 24v34c4 14-6 22-20 22zM788 492h-234c-8-26-22-48-44-56l-2-4v-20h280c14 0 24 8 24 22v34c0 14-10 24-24 24zM788 344h-184c14-20 22-44 22-66v-14h164c14 0 22 10 22 22v36c0 12-10 22-24 22zM884 862h-744c-78 0-140-62-140-138v-552c0-76 62-140 140-140h744c76 0 140 62 140 140v552c0 78-60 138-140 138zM958 174c0-40-34-74-74-74h-744c-40 0-74 34-74 74v552c0 40 34 74 74 74h744c40 0 74-34 74-74z" />
<glyph unicode="&#x6d;" glyph-name="home" d="M1002 496l-436 436c-30 30-78 30-106 0l-438-436c-22-22-28-54-16-84 12-28 40-46 70-46h60v-326c0-54 44-100 100-100h556c54 0 100 46 100 100v326h58c30 0 60 20 70 46 10 30 4 62-18 84zM628 84h-232v130c0 64 52 116 116 116s116-52 116-116z" />
<glyph unicode="&#x6e;" glyph-name="circle" d="M512-64c-284 0-512 230-512 512 0 284 228 512 512 512 282 0 512-228 512-512 0-282-230-512-512-512zM512 820c-206 0-368-168-368-368s168-368 368-368c200 0 368 168 368 368 0 202-166 368-368 368z" />
<glyph unicode="&#x6f;" glyph-name="clip" d="M1014.704 667.456c-11.264 22.528-33.744 33.744-56.256 33.744h-270.080l-146.288 225.056c-11.248 22.496-33.744 33.744-56.288 33.744-22.512 0-33.744-11.264-45.008-33.744l-112.528-270.064-11.264-11.264h-11.232l-270.080-89.984c-11.264-11.264-33.76-22.512-33.76-45.008s11.264-45.024 22.528-56.288l225.024-157.52v-11.28l-45.008-281.312c-11.248-22.528 0-45.008 22.528-56.256 11.28-11.28 22.528-11.28 33.776-11.28 0 0 11.248 11.28 22.512 11.28l247.568 168.784h11.232l258.8-90.016c0 0 11.248 0 22.512 0 11.28 0 22.496 0 22.496 11.248 22.512 11.248 22.512 33.76 22.512 56.288l-56.256 270.080c0 0 0 11.216 0 22.496l191.328 225.040c22.464 11.232 22.464 33.76 11.232 56.256z" />
<glyph unicode="&#x70;" glyph-name="idea" d="M252 722c6-6 12-6 18-6s14 0 18 6c10 10 10 26 0 34l-68 70c-10 10-26 10-36 0s-10-26 0-36zM252 272l-68-68c-10-10-10-26 0-36 4-4 12-6 18-6s12 2 18 6l68 68c10 10 10 26 0 36s-26 10-36 0zM512 814c12 0 24 12 24 24v98c0 12-12 24-24 24s-24-12-24-24v-98c0-14 12-24 24-24zM754 714c6 0 12 2 18 6l68 68c10 10 10 26 0 36s-26 10-36 0l-68-68c-10-10-10-26 0-36 4-4 12-6 18-6zM196 496c0 12-12 24-24 24h-98c-14 2-26-10-26-24s12-24 24-24h98c14 0 26 12 26 24zM772 272c-10 10-26 10-36 0s-10-26 0-36l68-68c6-4 12-6 18-6s14 2 18 6c10 10 10 26 0 36zM950 522h-98c-12 0-24-12-24-24 0-14 12-24 24-24h98c14 0 24 10 24 24 0 12-10 24-24 24zM610 34h-196c-16 0-28-16-22-32 4-10 12-16 24-16 14 0 28-8 34-22 8-16 26-26 44-26h36c18 0 36 10 44 26 6 14 20 22 34 22 12 0 20 6 24 16 6 16-6 32-22 32zM610 94h-196c-12 0-24-10-24-24 0-12 12-24 24-24h196c12 0 24 12 24 24 0 14-12 24-24 24zM612 156c14 136 156 168 156 328 0 142-116 256-256 256s-256-114-256-256c0-160 142-192 156-328-12 0-22-12-22-24 0-14 12-24 24-24h196c12 0 24 10 24 24 0 12-10 24-22 24zM446 648c-50-20-90-66-104-120-2-8-10-14-18-14 0 0-2 0-4 0-10 2-16 12-12 22 16 66 64 118 126 144 10 4 20 0 24-10 2-8-4-18-12-22z" />
<glyph unicode="&#x71;" glyph-name="publish" d="M1006 828l-104 104c-14 14-34 24-50 26-4 0-10 0-14 0-16 0-30-2-40-14l-744-742c-2-4-6-14-10-24l-40-180c-4-6-4-10-4-16 0-12 6-24 14-34 6-6 18-12 30-12 4 0 10 0 14 0l178 46c10 0 18 10 22 14l740 744c16 16 24 32 24 48 2 16-4 28-16 40zM186 74l-78-18 22 76zM796 674l-536-536-66 66 534 536zM908 786l-46-46-66 66 44 46z" />
<glyph unicode="&#x72;" glyph-name="recognition" d="M835.92 960h-648.528c-0.448 0-0.912 0-1.376 0-68.048-0.768-122.592-56.544-121.84-124.592v-648.528c0-68.048 55.168-123.216 123.216-123.216h226.32l52.224-100.336c8.592-16.784 25.856-27.344 44.72-27.312h2.048l0.336 0.688c19.248 0.848 36.4 12.464 44.368 30.032l44.032 98.32h235.168c68.048 0 123.216 55.152 123.216 123.216v648.512c0 0.224 0 0.448 0 0.672-0.368 68.064-55.856 122.912-123.904 122.544zM886.096 188.256c-0.192-27.456-22.368-49.664-49.824-49.84h-283.296l-44.032-98.304-50.864 98.288h-271.024c-27.456 0.192-49.664 22.384-49.84 49.84v648.544c0 27.712 22.464 50.176 50.176 50.176l0.336-0.336h648.528c27.456-0.176 49.648-22.384 49.824-49.824v-648.544zM827.392 404.656h-26.624l-12.624 22.528c-1.040 1.808-3.024 2.88-5.12 2.72-1.984-0.24-3.696-1.552-4.432-3.408l-10.928-26.624-26.288-9.568c-2.88-0.896-4.496-3.936-3.616-6.832 0.336-1.072 1.008-2.048 1.904-2.736l19.456-16.032-3.744-27.664c-0.4-2.992 1.68-5.728 4.688-6.144 0.464-0.064 0.976-0.064 1.456 0h2.384l23.552 16.736 24.24-8.88h2.384c3.008 0.32 5.168 3.008 4.864 6-0.032 0.16-0.048 0.32-0.080 0.464l-5.792 26.288c-0.224 0.56-0.224 1.152 0 1.712l18.768 22.528c1.888 2.336 1.52 5.776-0.848 7.664-1.024 0.864-2.304 1.28-3.6 1.248zM382.304 625.84h-159.072l-5.12-26.624h158.736zM394.256 684.88h-197.984l-5.456-26.272h198.304zM409.264 566.448h-119.808l-5.12-26.288h119.808zM729.44 370.176c-20.48-42.336-43.68-68.272-65.552-68.272-21.84 0-24.928 17.056-24.928 35.152-0.032 11.488 1.232 22.944 3.76 34.144l15.696 70.992 3.056 3.76c0 0 155.664 146.080 157.008 280.24 2.144 32.352-22.352 60.32-54.704 62.448-3.728 0.24-7.472 0.128-11.168-0.336-34.144 0-84.32-30.384-114.336-143.024l-61.104-261.456c0 0-22.192-34.144-32.080-46.416l-8.528-11.264c-11.008-13.856-27.104-22.72-44.72-24.576-16.208 0.16-29.216 13.44-29.056 29.664 0.016 1.504 0.16 3.008 0.384 4.48 0.656 11.392 2.352 22.704 5.12 33.792l49.152 229.712h58.704l4.096 26.96h-58.016l22.512 102.4h-76.416l-22.528-102.4h-24.576l-5.104-26.288h24.912l-46.080-216.064c-3.984-18.064-6.272-36.448-6.832-54.96 0-43.008 15.024-84.32 71.008-84.32 28.672 0 68.272 17.408 108.208 77.824l3.424 4.784c-2.4-44.72 15.008-82.608 60.752-82.608 39.68 1.856 75.248 25.12 92.848 60.752 33.744 51.584 5.088 64.88 5.088 64.88zM683.008 549.024l30.72 123.232c7.184 34.128 23.568 80.896 51.216 80.896 18.080 0 26.96-22.864 18.416-56.32-21.76-71.968-59.456-138.096-110.256-193.536l9.904 45.728z" />
<glyph unicode="&#x73;" glyph-name="left-arrow" d="M240 494l444 446c28 28 72 28 100 0 28-30 28-72 0-102l-388-390 388-390c28-30 28-72 0-102-28-28-72-28-100 0l-444 444c-12 12-22 32-22 50 0 14 6 34 22 44z" />
<glyph unicode="&#x74;" glyph-name="cloud" d="M1024 304c0-112-90-204-202-204h-620c-112 0-202 92-202 204 0 100 74 184 170 200-2 6-2 14-2 22 0 70 58 128 128 128 32 0 60-10 82-30 40 90 90 172 232 172 172 0 254-136 254-276 0-6 0-12 0-18 92-18 160-100 160-198z" />
<glyph unicode="&#x75;" glyph-name="create-project" d="M898 506c0 2 0 4 0 6 0 142-116 258-260 258-92 0-176-48-224-128-8 2-18 2-28 2-82 0-154-50-182-126-2 2-4 2-6 2-110 0-198-88-198-198 0-108 88-196 198-196h628c110 0 198 88 198 196 0 82-50 154-126 184zM826 206h-628c-66 0-118 52-118 116 0 66 52 118 116 118 2 0 4 0 6-2l56-4 18 50c16 46 62 80 110 80 6 0 12 0 20-2l50-10 24 44c32 60 94 96 158 96 100 0 178-78 180-178 0-4 0-6 0-8l-4-56 50-18c48-16 80-60 80-110 0-64-52-116-118-116z" />
<glyph unicode="&#x76;" glyph-name="crowdfunding" d="M854.48 504.032c-50.336 82-116.944 155.648-184.992 204.544 1.248 5.2 2.080 10.816 2.080 16.224 0 20.192-9.136 39.12-24.144 51.808l29.136 114.432c5.632 20.192 1.248 40.368-11.856 53.68-13.312 13.52-33.504 18.512-53.872 13.104-0.64-0.208-1.264-0.416-1.888-0.624-2.48-0.832-62.624-19.984-82.592-25.792-9.36-2.704-28.512-2.704-37.872 0-20.592 5.824-82.816 25.584-83.44 25.792s-1.248 0.416-1.872 0.624c-20.592 5.408-40.784 0.416-54.096-13.104-13.328-13.52-17.68-33.92-11.856-54.32 0.208-0.416 0.208-0.832 0.4-1.456l37.040-114.032c-13.952-12.688-22.48-31.008-22.48-50.352 0-5.616 0.624-11.024 2.080-16.224-67.824-48.896-134.608-122.56-184.976-204.544-60.128-97.792-93.216-199.136-93.216-285.28 0-85.52 25.792-153.552 76.784-202.048 55.984-53.424 140.672-80.464 251.792-80.464h214.72c111.12 0 195.792 27.040 251.76 80.512 50.992 48.496 76.8 116.528 76.8 202.048-0.416 86.368-33.504 187.488-93.44 285.472zM467.888 860.064c22.896-6.448 55.744-6.448 78.64 0 10.832 3.12 31.424 9.568 49.536 15.2l-21.232-82.816h-128.384l-26.416 82.192c17.888-5.424 37.456-11.456 47.856-14.576zM819.728 70.4c-41.808-39.728-109.232-59.92-200.576-59.92h-214.736c-91.344 0-158.976 20.192-200.576 59.92-35.6 33.92-53.68 83.856-53.68 148.368 0 72.608 29.12 160 82.192 246.352 49.104 80.112 113.808 149.808 178.528 192.464 2.912-0.416 6.032-0.624 8.944-0.624 127.344 0.416 173.536 1.040 191.216 1.664 65.344-42.656 130.688-112.784 180.208-193.52 53.040-86.352 82.192-173.968 82.192-246.352-0.016-64.48-18.112-114.416-53.712-148.352zM592.896 193.424c-13.104-2.304-26.224-3.552-38.928-3.552-19.76 0-36.192 4.576-49.504 13.728-13.104 9.152-23.104 25.392-29.76 48.688h100.080l11.024 57.648h-118.8c-0.416 4.176-0.624 7.504-0.624 9.984 0 2.304 0 4.992 0 8.112s0 6.048 0 8.96c0 2.928 0.208 6.448 0.624 10.816h125.888l11.008 57.648h-129.2c5.824 19.776 15.184 34.768 28.304 44.736 12.912 10 31.2 15.2 54.512 15.2 14.352 0 26.432-1.040 36-3.12 9.776-2.080 19.136-4.784 28.496-7.904l18.112 67.408c-12.48 4.576-24.768 8.32-37.248 11.024s-27.248 4.16-44.736 4.16c-44.32 0-80.528-11.024-108.816-33.072-28.304-22.064-47.44-54.944-57.648-98.432h-44.32v-57.648h36.624c-0.416-3.12-0.624-6.432-0.624-9.984 0-3.536 0-6.864 0-9.968 0-3.12 0-5.84 0-8.144 0-2.272 0.208-5.6 0.624-9.968h-36.624v-57.664h41.824c8.112-42.656 24.976-75.728 50.56-99.232 25.6-23.536 62.64-35.152 111.12-35.152 22.048 0 41.424 2.080 57.84 6.032 16.432 4.16 29.968 8.72 40.368 14.336l-16.864 67.008c-12.88-5.408-26.208-9.376-39.312-11.648z" />
<glyph unicode="&#x77;" glyph-name="delete" d="M988 756l-308-308 308-308c48-48 48-122 0-166-22-22-52-34-84-34s-60 14-84 34l-308 308-308-308c-24-22-54-34-86-34-30 0-58 14-84 34-46 46-46 122 0 166l310 308-308 308c-48 48-48 122 0 166 46 46 120 46 164 0l308-310 310 310c46 46 122 46 164 0 50-44 50-118 6-166z" />
<glyph unicode="&#x78;" glyph-name="discuss" d="M510 930c-282 0-510-190-510-422 0-128 68-248 186-328-14-58-50-96-50-96-18-16-24-44-18-70 0-2 0-2 4-6 10-26 34-42 64-42 112 0 204 62 266 118 22-4 42-4 64-4 280 2 508 192 508 424-4 236-232 426-514 426zM510 184c-24 0-46 4-70 6-14 4-28-2-42-14-34-36-88-78-150-96 18 28 32 70 42 120 2 20-6 38-24 50-106 62-166 158-166 260 0 178 184 326 414 326 228 0 412-148 412-326-2-182-190-326-416-326zM728 600h-420c-14 0-24-12-24-24 0-14 12-24 24-24h416c16 0 24 12 24 24 2 12-8 24-20 24zM728 458h-420c-14 0-24-12-24-24 0-14 12-24 24-24h416c16 0 24 10 24 24 2 10-8 24-20 24z" />
<glyph unicode="&#x79;" glyph-name="event" d="M998 840c-18 18-38 26-64 26h-196v24c0 26-24 50-50 50s-50-22-50-50v-24h-250v24c0 26-22 50-52 50-26 0-50-22-50-50v-24h-196c-22 0-46-8-64-26s-26-42-26-64v-728c0-26 8-46 26-64s38-26 64-26h846c26 0 46 8 60 26 18 18 26 40 26 64v728c2 22-6 46-24 64zM924 764v-142h-824v142h190c0-28 24-48 50-48 24 0 48 24 48 48h250c0-28 22-48 50-48 26 0 50 24 50 48zM924 524v-464h-824v464zM374 324h400c30 0 50 22 50 52 0 26-20 50-50 50h-400c-28 0-52-22-52-50s24-52 52-52zM374 164h400c30 0 50 20 50 48 0 30-20 54-50 54h-400c-28 0-52-22-52-54 0-24 24-48 52-48zM204 424h100v-100h-100zM204 266h100v-102h-100z" />
<glyph unicode="&#x7a;" glyph-name="favorite" d="M512-22l-72 70c-266 236-440 396-440 588 0 160 124 282 282 282 86 0 174-40 230-106 56 66 144 106 230 106 158 0 282-122 282-282 0-192-174-352-440-588z" />
<glyph unicode="&#xe900;" glyph-name="warning" d="M1019.616 32.048l-476.56 866.096c-6.224 11.312-18.128 18.352-31.056 18.352s-24.816-7.040-31.056-18.352l-476.56-866.096c-6.032-10.992-5.84-24.336 0.544-35.136 6.384-10.784 17.984-17.408 30.512-17.408h953.104c12.544 0 24.144 6.624 30.512 17.408 6.384 10.8 6.608 24.144 0.56 35.136zM95.408 50.384l416.592 757.136 416.592-757.12h-833.184zM467.584 554.272v-256.208c0-24.528 19.888-44.432 44.416-44.432s44.416 19.904 44.416 44.432v256.208c0 24.528-19.888 44.416-44.416 44.416s-44.416-19.888-44.416-44.416zM512 207.52c-25.792 0-46.784-20.992-46.784-46.784 0-25.808 21.008-46.8 46.784-46.8 25.792 0 46.8 20.992 46.8 46.8 0 25.792-21.008 46.784-46.8 46.784z" />
<glyph unicode="&#xe901;" glyph-name="aide" d="M645.616 693.696c-11.936 11.904-32.144 28.16-56.32 36.096-20.256 12.304-52.736 16.256-88.848 16.256-28.512 0-60.656-3.984-88.816-11.904-28.176-7.936-52.352-20.224-76.56-32.144l32.144-84.48c19.856 12.304 40.080 20.224 60.304 24.192 19.856 3.984 40.080 7.952 60.304 7.952 28.176 0 48.384-3.968 49.104-12.288 12.304-12.272 20.224-28.16 20.224-48.368 0-16.256 0-28.512-7.92-40.432-4-11.904-12.304-24.208-24.224-36.096-7.952-11.904-20.224-24.208-32.128-36.112-11.92-11.92-20.24-24.192-32.144-36.112-7.952-12.288-16.256-28.16-24.208-44.384-3.968-16.24-7.936-32.144-7.936-52.352 0-8.304 0-11.888 0-20.224 0-8.304 3.968-12.304 3.968-20.24h96.784c0 3.968 0 7.936 0 11.936 0 3.968 0 7.936 0 11.888 0 16.256 3.968 32.16 11.888 48.384 7.968 12.288 16.256 28.496 28.192 40.432 11.888 11.888 24.176 24.192 36.112 36.080 11.904 12.288 24.176 28.544 36.112 40.448 11.904 12.288 20.24 28.512 28.16 44.4s11.92 36.112 11.92 56.336c0 16.256-4 32.144-7.968 52.336-3.984 16.272-16.24 32.16-28.144 48.4zM487.792 230.448c-20.224 0-36.096-8.336-52.336-20.24-12.304-11.904-20.224-32.144-20.224-52.336 0-20.256 3.984-40.448 20.224-52.352 16.256-12.288 32.128-20.24 52.336-20.24s40.112 8.32 52.368 20.24c12.288 11.904 20.224 32.144 20.224 52.352s-7.936 40.416-20.224 52.336c-16.224 12.304-32.144 20.24-52.368 20.24zM512 959.808c-282 0-512-229.632-512-511.648 0-281.984 229.648-511.984 512-511.984 282.368 0 512 229.632 512 511.984s-226.048 511.648-512 511.648zM512 24.992c-229.648 0-419.2 185.232-419.2 419.2 3.968 233.616 189.552 419.232 419.2 419.232s419.184-185.232 419.184-419.2c0-229.68-185.2-419.232-419.184-419.232z" />
<glyph unicode="&#xe902;" glyph-name="baguette_magique" d="M678.496 302.672l10.752 43.088c3.12 12.56-1.376 25.12-10.784 33.184-9.44 8.064-23.056 9.936-34.464 5.552l-40.912-17.248-37.632 23.488c-10.496 6.816-24.592 6.896-34.608 0.24-11.232-6.72-16.768-18.304-15.792-31.12l4.608-44.256-34.784-27.904c-9.968-7.824-13.632-21.008-10.928-33.136 1.696-6.912 5.104-13.072 10.768-17.92 3.776-3.248 8.704-6.368 14-6.544l43.616-10.128 16.72-41.52c2.16-5.12 4.848-9.616 8.624-12.832 5.024-4.32 12.288-7.264 19.376-7.904 12.4-0.784 24.224 5.424 31.056 15.904l22.848 38.16 44.4 2.272c12.816 1.008 23.968 8.912 28.336 20.384 4.944 12.128 2.784 24.864-5.6 34.192l-29.6 34.048zM620.32 243.616l-31.088-52.864-22.656 57.488-60.32 13.52 47.44 38.88-5.968 61.744 52.432-32.912 56.784 24.336-15.312-59.856 40.592-46.72-61.904-3.616zM973.6 386.576l-29.664 34.080 11.28 43.712c2.592 11.936-1.376 25.12-10.784 33.184s-23.056 9.936-34.432 5.552l-40.944-17.264-38.224 24.048c-10.528 6.816-24.624 6.88-34.624 0.24-11.248-6.736-16.816-18.32-15.776-31.152l4.592-44.24-34.16-28.448c-9.968-7.808-13.632-21.008-10.944-33.12 1.712-6.912 5.12-13.088 10.784-17.92 3.776-3.248 8.688-6.368 14-6.56l43.6-10.112 16.72-41.536c2.192-5.104 4.88-9.616 8.624-12.832 5.024-4.304 12.32-7.248 19.408-7.888 12.368-0.8 24.224 5.408 31.024 15.904l22.32 37.536 44.4 2.256c12.848 1.008 23.968 8.912 28.336 20.4 4.96 12.096 2.8 24.848-5.536 34.16zM886.288 362.208l-31.088-52.864-22.656 57.52-60.32 13.504 47.472 38.88-5.968 61.744 52.4-32.912 56.784 24.336-15.28-59.856 40.56-46.736-61.904-3.616zM936.784 81.568l10.752 43.072c3.776 12.032-0.752 24.608-10.16 32.656-9.408 8.064-23.056 9.952-34.432 5.568l-40.944-17.28-38.224 24.032c-10.528 6.832-24.592 6.896-34.656 0.272-11.216-6.752-16.752-18.336-15.744-31.168l4.592-44.24-34.16-28.448c-9.968-7.808-13.632-21.008-10.944-33.12 1.712-6.912 5.12-13.088 10.784-17.92 3.744-3.232 8.688-6.352 13.968-6.56l43.632-10.096 16.72-41.552c2.192-5.104 4.88-9.6 8.624-12.832 5.024-4.304 12.32-7.248 19.408-7.872 12.368-0.8 24.224 5.392 31.024 15.888l22.848 38.16 43.776 2.816c12.848 0.992 23.968 8.896 28.336 20.368 4.944 12.128 2.784 24.88-5.6 34.192l-29.6 34.064zM879.216 21.936l-31.088-52.864-22.656 57.52-60.32 13.504 47.472 38.88-5.968 61.728 52.4-32.896 56.816 24.336-15.312-59.856 40.56-46.72-61.904-3.632zM530.256 489.504c1.344-2.24 2.688-4.464 4.592-6.096 2.496-2.16 5.568-3.68 8.496-4.032 6.464-0.080 12.656 3.328 15.808 8.272l77.344 129.792 151.28 8.8c6.368 1.072 11.936 5.024 14.432 10.496 3.056 6.112 1.968 12.464-2.528 17.408l-100.368 114.272 36.688 147.168c1.872 6.016-0.336 12.304-5.376 16.592-5.024 4.32-11.6 5.568-17.216 2.784l-139.152-59.488-127.824 82.208c-4.928 3.136-12.56 3.12-17.6-0.192-5.552-3.952-8.608-10.064-8.144-15.888l14.624-150.848-116.32-96.432c-4.928-4.48-7.344-11.12-5.728-16.864 1.088-6.368 5.568-11.296 12.112-12.544l130-30.080-409.184-477.984c-5.92-6.912-5.12-17.408 1.808-23.312 6.896-5.936 17.392-5.104 23.328 1.776l409.184 477.984 49.744-123.792zM462.688 770.592c4.384 3.84 6.352 8.704 5.92 14.528l-12.096 125.792 108-68.48c4.288-2.592 10.224-3.328 15.312-1.168l116.464 49.52-31.008-122.672c-1.344-5.376-0.32-10.592 3.536-14.992l83.68-95.6-126.16-7.44c-5.808-0.448-10.32-3.152-13.472-8.080l-64.368-108.256-47.248 117.76c-1.328 2.256-2.704 4.48-4.592 6.112-2.512 2.16-4.928 3.136-7.344 4.112l-123.664 28.56 97.040 80.304z" />
<glyph unicode="&#xe903;" glyph-name="bulle" d="M836.672 960h-649.344c-67.92 0-123.168-55.28-123.168-123.2v-650.096c0-67.92 55.248-123.2 123.168-123.2h226.352l52.368-100.272c8.256-16.544 25.808-27.232 44.736-27.232h1.92l0.336 0.048c19.408 0.992 35.92 12.16 44.32 30l44.016 98.272h235.312c67.92 0 123.168 55.232 123.168 123.152v649.328c-0.016 67.92-55.264 123.2-123.184 123.2zM886.64 187.472c0-27.568-22.4-50-49.968-50h-283.392l-44.064-98.256-50.816 98.256h-271.072c-27.6 0-49.984 22.432-49.984 50v649.328c0 27.584 22.384 49.984 49.984 49.984h649.344c27.568 0 49.968-22.384 49.968-49.984v-649.328z" />
<glyph unicode="&#xe904;" glyph-name="fleche_bas" d="M984.432 723.76l-472.448-472.448-472.416 472.448-39.568-39.536 511.984-511.984 512.016 511.984z" />
<glyph unicode="&#xe905;" glyph-name="fleche_droite" d="M275.76 960l-39.536-39.536 472.464-472.48-472.464-472.464 39.536-39.52 512.016 511.984z" />
<glyph unicode="&#xe906;" glyph-name="polaroid" d="M194.864 960l-148.56-893.888 782.816-130.112 148.56 893.92-782.816 130.080zM811.344 109.312l-692.16 115.040 115.024 692.16 692.16-115.008-115.024-692.192zM392.029 593.507c-11.21 1.864-16.845 24.144-12.586 49.764s16.8 44.878 28.010 43.015c11.21-1.864 16.845-24.144 12.586-49.764s-16.8-44.878-28.010-43.015zM677.063 641.494c11.218-1.866 16.857-24.146 12.595-49.764s-16.811-44.872-28.029-43.005c-11.218 1.866-16.857 24.146-12.595 49.764s16.811 44.872 28.029 43.005zM659.408 371.056c-49.84-35.648-110.56-49.696-170.912-39.712-60.368 10.032-113.248 43.008-148.896 92.88-5.648 7.92-16.688 9.744-24.608 4.096-7.936-5.664-9.744-16.672-4.096-24.608 41.136-57.536 102.144-95.584 171.792-107.152 14.672-2.432 29.328-3.632 43.872-3.632 54.704 0 107.936 16.976 153.36 49.456 7.904 5.664 9.712 16.672 4.096 24.592-5.68 7.936-16.672 9.744-24.608 4.080z" />
<glyph unicode="&#xe907;" glyph-name="tlenter" d="M857.407 222.169c-32.681-65.085-69.488-103.574-104.353-103.574-30.513 0-37.829 25.834-37.829 52.848 0 18.796 2.444 38.765 6.102 52.859l24.937 109.094 4.713 5.91c0 0 246.117 223.658 248.205 428.836 0 57.843-36.446 95.474-104.861 95.474-52.775 0-134.483-46.504-182.437-219.425l-97.151-400.958c-0.011-0.034-35.159-51.714-50.918-70.995l-15.776-17.582c-23.898-24.101-48.44-37.462-71.294-37.462-36.034 0-45.64 26.591-45.64 54.35 0 17.339 6.006 37.004 8.404 49.721l78.084 352.648h93.696l8.404 40.476h-92.505l35.994 159.549h-121.275l-36.039-159.549h-39.635l-8.41-40.476h39.635l-73.275-330.675c-4.809-23.131-10.815-55.495-10.815-84.4 0-65.909 24.017-129.493 112.921-129.493 45.911 0 107.903 26.726 172.283 119.141h0.011l6.152 7.699c-3.646-68.777 24.011-126.851 97.060-126.851 39.121 0 94.893 14.207 148.238 93.228 53.328 79.021 7.372 99.606 7.372 99.606zM783.505 496.367l48.835 188.81c11.661 51.922 37.603 123.888 81.522 123.888 28.826 0 43.004-35.125 29.322-86.297-30.491-136.577-155.293-274.502-175.669-296.335l15.99 69.934zM303.904 614.39h-253.46l-8.41-40.476h253.466zM347.044 523.364h-191.073l-8.404-40.47h191.067zM323.264 705.411h-316.062l-8.404-40.47h316.056zM1020.788 261.414c2.173 2.546 2.613 6.073 1.123 9.042s-4.628 4.837-8.043 4.798l-42.073-0.553c-0.418-0.006-0.502 0.141-0.548 0.214l-19.874 34.73c-1.631 2.85-4.82 4.549-8.19 4.363-0.175-0.011-0.35-0.028-0.508-0.045-3.144-0.373-5.91-2.314-7.14-5.176l-17.441-40.583c-0.26-0.587-0.638-1.123-1.123-1.558-0.44-0.384-0.914-0.666-1.394-0.813l-41.746-12.643c-3.076-0.937-5.379-3.409-6-6.468-0.604-3.054 0.564-6.181 3.048-8.15l31.050-24.592c0.152-0.119 0.333-0.604 0.226-1.293l-6.243-42.587c-0.497-3.353 1.123-6.66 4.115-8.41 1.738-1.022 3.731-1.4 5.656-1.18 1.422 0.164 2.794 0.66 4.007 1.496l37.575 25.535c0.48 0.339 1.016 0.559 1.484 0.604 0.248 0.028 0.474 0.011 0.666-0.056l38.89-13.552c1.315-0.463 2.709-0.598 4.070-0.446 1.722 0.203 3.364 0.892 4.719 2.026 2.404 2.026 3.483 5.159 2.8 8.167l-9.054 40.193c-0.181 0.852 0.164 1.976 0.931 2.867l29.018 34.069z" />
</font>
</defs>
</svg>
