<svg width="80" height="80" viewBox="0 0 80 80" fill="none" xmlns="http://www.w3.org/2000/svg">
<path d="M41.0128 31.1847C35.3861 31.1847 30.5095 34.4357 28.0088 39.1872C25.508 34.5607 20.5064 31.4348 14.8796 31.4348C11.5036 31.4348 8.50266 32.5601 6.00188 34.4357L5.87684 21.9318C5.87684 20.3063 4.50141 19.0559 2.8759 19.0559C1.25039 19.0559 0 20.3063 0 21.9318L0.125039 46.4395C0.375117 54.442 7.00219 60.944 15.0047 60.944C20.6314 60.944 25.508 57.693 28.0088 52.9415C30.5095 57.5679 35.5111 60.6939 41.1379 60.6939C49.2654 60.6939 55.8925 53.9418 55.8925 45.8143C55.7674 37.6867 49.1404 31.0597 41.0128 31.1847ZM15.0047 54.9421C10.1282 54.9421 6.12691 51.0659 6.12691 46.1894C6.12691 41.3129 10.0031 37.3116 15.0047 37.3116C19.8812 37.3116 23.8825 41.1878 23.8825 46.0643C23.8825 50.9409 19.8812 54.9421 15.0047 54.9421ZM41.1379 54.8171C36.2613 54.8171 32.2601 50.9409 32.2601 45.9393C32.2601 41.0628 36.1363 37.0615 41.0128 37.0615C45.8893 37.0615 49.8906 40.9377 49.8906 45.8143C50.0156 50.8158 46.0144 54.8171 41.1379 54.8171Z" fill="#22A7F0"/>
<path d="M79.3999 55.8175L71.1473 45.6893L79.2748 35.5611C80.2751 34.3108 80.0251 32.4352 78.5246 31.4349C77.1492 30.4345 75.1485 30.6846 74.0232 32.0601L66.896 40.8128L59.7687 32.0601C58.6434 30.8097 56.6428 30.5596 55.2673 31.5599C53.8919 32.5602 53.6418 34.3108 54.6421 35.6862L62.8947 45.8143L54.7672 55.9425C53.7669 57.3179 54.0169 59.0685 55.5174 60.0688C56.8928 61.0691 58.8935 60.819 60.0188 59.4436L67.021 50.6909L74.1482 59.4436C75.2736 60.694 77.2742 60.9441 78.6496 59.9438C80.1501 58.9435 80.4002 57.0679 79.3999 55.8175Z" fill="#22A7F0"/>
</svg>
