<svg width="80" height="80" viewBox="0 0 80 80" fill="none" xmlns="http://www.w3.org/2000/svg">
<path d="M57.5442 22.457H22.4563V57.5449H57.5442V22.457Z" fill="white"/>
<path d="M57.5442 73.3335L73.3337 57.5439H57.5442V73.3335Z" fill="#EA4335"/>
<path d="M73.3337 22.457H57.5442V57.5449H73.3337V22.457Z" fill="#FBBC04"/>
<path d="M57.5442 57.5439H22.4563V73.3335H57.5442V57.5439Z" fill="#34A853"/>
<path d="M6.66675 57.5439V68.0703C6.66675 70.9782 9.02202 73.3335 11.9299 73.3335H22.4563V57.5439H6.66675Z" fill="#188038"/>
<path d="M73.3337 22.4561V11.9297C73.3337 9.02178 70.9785 6.6665 68.0706 6.6665H57.5442V22.4561H73.3337Z" fill="#1967D2"/>
<path d="M57.5442 6.6665H11.9299C9.02202 6.6665 6.66675 9.02178 6.66675 11.9297V57.5439H22.4563V22.4561H57.5442V6.6665Z" fill="#4285F4"/>
<path d="M29.6536 49.6758C28.3422 48.7899 27.4343 47.496 26.9387 45.7855L29.9826 44.5311C30.2589 45.5837 30.7414 46.3995 31.43 46.9784C32.1142 47.5574 32.9475 47.8425 33.9212 47.8425C34.9168 47.8425 35.7721 47.5398 36.487 46.9346C37.2019 46.3293 37.5616 45.5574 37.5616 44.6232C37.5616 43.667 37.1844 42.8863 36.43 42.2811C35.6756 41.6758 34.7282 41.3732 33.5966 41.3732H31.8379V38.36H33.4168C34.3905 38.36 35.2107 38.0968 35.8774 37.5705C36.544 37.0442 36.8774 36.3249 36.8774 35.4082C36.8774 34.5924 36.5791 33.9433 35.9826 33.4565C35.3861 32.9696 34.6317 32.724 33.7151 32.724C32.8203 32.724 32.1098 32.9608 31.5835 33.4389C31.0575 33.9182 30.6621 34.5235 30.4344 35.1977L27.4212 33.9433C27.8203 32.8117 28.5528 31.8117 29.6273 30.9477C30.7019 30.0836 32.0747 29.6494 33.7414 29.6494C34.9739 29.6494 36.0835 29.8863 37.066 30.3643C38.0484 30.8424 38.8204 31.5047 39.3774 32.3468C39.9344 33.1933 40.2107 34.1407 40.2107 35.1933C40.2107 36.2679 39.9519 37.1758 39.4344 37.9214C38.9168 38.667 38.2809 39.2372 37.5265 39.6363V39.8161C38.5006 40.2177 39.3467 40.8774 39.9739 41.724C40.6098 42.5793 40.93 43.6012 40.93 44.7942C40.93 45.9872 40.6274 47.053 40.0221 47.9872C39.4169 48.9214 38.5791 49.6583 37.5177 50.1934C36.4519 50.7285 35.2546 51.0004 33.9256 51.0004C32.3861 51.0048 30.9651 50.5618 29.6536 49.6758V49.6758ZM48.3511 34.5705L45.009 36.9872L43.3379 34.4521L49.3336 30.1275H51.6318V50.5267H48.3511V34.5705Z" fill="#4285F4"/>
</svg>
