<svg width="80" height="80" viewBox="0 0 80 80" fill="none" xmlns="http://www.w3.org/2000/svg">
<path d="M73.9589 46.9717L72.5846 46.347L72.4597 44.3481C71.8351 36.8523 64.3392 32.4797 56.7185 35.1033L55.0944 35.603L53.3453 33.729C50.2221 30.3559 47.8484 29.3564 43.3509 29.3564C40.1027 29.3564 38.8534 29.6063 36.1049 30.9805C33.6063 32.2299 31.2326 35.3531 29.9833 39.101C29.7334 39.9756 29.4836 40.8501 29.4836 41.0999C29.4836 42.0994 28.8589 42.4742 26.985 42.9739C23.1121 43.7235 20.1138 45.9722 18.9894 48.8456C18.4897 49.97 18.3647 50.8445 18.3647 52.7185C18.3647 58.4653 21.1132 62.2132 25.8606 63.4625C26.86 63.7124 32.7318 63.8373 50.9716 63.7124H74.8334L75.9578 63.0877C78.2065 61.8384 79.7057 59.4647 79.9556 56.3415C80.3304 51.719 78.3315 48.4708 73.9589 46.9717Z" fill="#094AB1"/>
<path d="M15.1166 52.9684C15.1166 47.2216 18.6147 42.7241 24.4864 40.7252C26.3604 40.1005 26.8601 39.8507 26.8601 39.226C26.8601 38.4764 28.2343 35.3532 29.3587 33.6041C30.8579 31.2304 32.9817 29.3565 35.6052 28.1072C41.9767 24.9839 49.5975 25.9834 54.2199 30.6058L55.844 32.2299L57.593 31.7302C58.5925 31.4803 59.7169 31.2304 60.0916 31.2304C60.9662 31.2304 61.0911 30.6058 60.2166 28.2321C57.8429 20.9861 51.3465 16.2388 43.7257 16.2388C40.9773 16.2388 38.7285 16.7385 36.6047 17.8629C34.6058 18.8623 32.1072 20.8612 30.8579 22.4853C28.859 25.2338 28.859 25.1088 27.9845 24.7341C24.8612 23.4847 21.3631 23.2349 18.4897 24.1094C13.2427 25.7335 9.49473 30.7307 9.24487 36.4775C9.24487 37.3521 9.11994 38.2266 8.99501 38.4764C8.87008 38.6014 8.24542 38.8512 7.62077 39.1011C4.37257 39.8507 1.87396 41.9745 0.499723 44.8479C0.124931 46.2221 0 46.7219 0 49.4703C0 52.3437 0 52.5936 0.874515 54.2177C2.24875 57.0911 5.24709 59.5897 8.12049 60.2144C9.11994 60.4642 16.4908 60.5892 16.7407 60.3393C16.8656 60.2144 16.6158 59.7146 16.3659 59.2149C15.6163 57.5908 15.1166 55.0922 15.1166 52.9684Z" fill="#094AB1"/>
</svg>
