<svg width="80" height="80" viewBox="0 0 80 80" fill="none" xmlns="http://www.w3.org/2000/svg">
<path d="M26.4982 6.6665H70.1688C71.0081 6.6665 71.8131 7.04438 72.4066 7.71701C73.0001 8.38964 73.3335 9.30193 73.3335 10.2532V59.9998H43.3335V20.9998C43.3335 20.4476 42.8858 19.9998 42.3335 19.9998H23.3335L23.3335 10.2532C23.3335 9.30193 23.6669 8.38964 24.2604 7.71701C24.8539 7.04438 25.6589 6.6665 26.4982 6.6665Z" fill="#0358A7"/>
<path fill-rule="evenodd" clip-rule="evenodd" d="M43.3335 56.6667V32.4946L56.6668 41.6667V56.6667H43.3335Z" fill="#0364B8"/>
<path fill-rule="evenodd" clip-rule="evenodd" d="M40 20.7763V16.6665H56.6667L73.3333 28.3332V43.3332H56.6667L43.3333 32.6665V26.3882C43.3333 23.9666 41.986 21.8597 40 20.7763Z" fill="#28A8EA"/>
<path fill-rule="evenodd" clip-rule="evenodd" d="M40.0002 16.6665H23.3335V19.9998H36.9452C38.0518 19.9998 39.0926 20.2812 40.0002 20.7763V16.6665ZM43.3335 29.9998H56.6668V43.3332H43.3335V29.9998ZM56.6668 43.3332H73.3335V56.6665H56.6668V43.3332Z" fill="#0078D4"/>
<path d="M56.667 16.6665H73.3337V29.9998H56.667V16.6665Z" fill="#50D9FF"/>
<path fill-rule="evenodd" clip-rule="evenodd" d="M50.7661 54.3452L75.8512 41.2521L75.8825 41.2359C76.3598 40.9932 76.6606 40.5189 76.6663 40V66.787C76.6589 67.8302 76.1171 68.8029 75.2179 69.3874C74.6108 69.7892 73.8903 70.0029 73.1532 69.9998L47.8603 62.7363L46.9639 54.3452C47.0738 54.4103 47.1873 54.4696 47.3039 54.5228C48.2927 54.9697 49.4373 54.9697 50.426 54.5228C50.5427 54.4697 50.6562 54.4104 50.7661 54.3452Z" fill="#1490DF"/>
<path fill-rule="evenodd" clip-rule="evenodd" d="M20 63.3335H36.945C40.4732 63.3335 43.3333 60.4733 43.3333 56.9452V52.4048L75.2259 69.3597C75.1525 69.4098 75.0792 69.4599 75.0059 69.5045C74.9326 69.549 74.8536 69.588 74.7747 69.6269C74.6844 69.6715 74.5942 69.7104 74.5039 69.7494C74.5011 69.7494 74.4983 69.7508 74.4955 69.7522C74.4926 69.7536 74.4898 69.755 74.487 69.755C74.3855 69.7921 74.284 69.8255 74.1824 69.8552C74.0689 69.8941 73.9518 69.9221 73.8327 69.9387C73.8071 69.9469 73.7806 69.9525 73.7538 69.9554C73.6917 69.9665 73.6297 69.9721 73.562 69.9776C73.4405 69.9936 73.318 70.001 73.1954 69.9999H23.4292C22.5302 70.0103 21.6638 69.6678 21.0207 69.0476C20.3776 68.4275 20.0104 67.5806 20 66.6932V63.3335Z" fill="#28A8EA"/>
<rect x="6.6665" y="26.6665" width="30" height="30" fill="white"/>
<path fill-rule="evenodd" clip-rule="evenodd" d="M36.9452 23.3335H6.38848C4.70128 23.3335 3.3335 24.7013 3.3335 26.3885V56.9452C3.3335 58.6324 4.70125 60.0002 6.38848 60.0002H36.9452C38.6324 60.0002 40.0002 58.6324 40.0002 56.9452V26.3885C40.0002 24.7013 38.6324 23.3335 36.9452 23.3335ZM14.3213 37.4476C14.9512 36.1905 15.9671 35.1384 17.2389 34.4263C18.648 33.67 20.2523 33.293 21.8752 33.3369C23.3788 33.3062 24.8625 33.6636 26.1642 34.3701C27.3889 35.0544 28.3753 36.0575 29.0035 37.2576C29.6872 38.58 30.0279 40.0352 29.998 41.5045C30.0312 43.0404 29.6803 44.5623 28.9735 45.9482C28.3314 47.1907 27.3152 48.2297 26.0504 48.9367C24.6982 49.6655 23.1587 50.0326 21.5994 49.9979C20.0636 50.0322 18.5472 49.6709 17.215 48.9533C15.9801 48.268 14.9818 47.2635 14.3396 46.0601C13.6518 44.7566 13.3075 43.3174 13.3354 41.8632C13.3046 40.3404 13.6416 38.8309 14.3213 37.4476ZM17.4304 44.5425C17.7661 45.3375 18.3351 46.027 19.0715 46.5312C19.8217 47.0233 20.7202 47.2772 21.6355 47.2557C22.6103 47.2915 23.5711 47.0294 24.3732 46.5088C25.1009 46.0045 25.6549 45.3111 25.9666 44.5144C26.3162 43.6265 26.4883 42.6858 26.4745 41.7394C26.4856 40.7839 26.3236 39.8336 25.9955 38.929C25.7061 38.1162 25.1725 37.3991 24.4591 36.8637C23.6777 36.3168 22.7193 36.0391 21.7452 36.0773C20.8097 36.0545 19.8906 36.3103 19.1197 36.8079C18.3692 37.3135 17.7878 38.0091 17.4436 38.8133C16.6812 40.6556 16.6768 42.6979 17.4314 44.543L17.4304 44.5425Z" fill="url(#paint0_linear_37_761)"/>
<defs>
<linearGradient id="paint0_linear_37_761" x1="-11.0269" y1="32.9069" x2="12.9069" y2="74.3605" gradientUnits="userSpaceOnUse">
<stop stop-color="#1784D9"/>
<stop offset="0.5" stop-color="#107AD5"/>
<stop offset="1" stop-color="#0A63C9"/>
</linearGradient>
</defs>
</svg>
