<svg xmlns="http://www.w3.org/2000/svg" width="30" height="30" viewBox="0 0 30 30">
  <g fill="none" fill-rule="evenodd">
    <path fill="#000" fill-rule="nonzero" d="M17,14 L17,13 C17,11.8954305 16.1045695,11 15,11 C13.8954305,11 13,11.8954305 13,13 L13,14 L17,14 Z M18,14 L19,14 L19,18 C19,19.1045695 18.1045695,20 17,20 L13,20 C11.8954305,20 11,19.1045695 11,18 L11,14 L12,14 L12,13 C12,11.3431458 13.3431458,10 15,10 C16.6568542,10 18,11.3431458 18,13 L18,14 Z" opacity=".25"/>
    <path fill="#000" fill-rule="nonzero" d="M12,15 L12,18 C12,18.5522847 12.4477153,19 13,19 L17,19 C17.5522847,19 18,18.5522847 18,18 L18,15 L12,15 Z M17,14 L17,13 C17,11.8954305 16.1045695,11 15,11 C13.8954305,11 13,11.8954305 13,13 L13,14 L17,14 Z M18,14 L19,14 L19,18 C19,19.1045695 18.1045695,20 17,20 L13,20 C11.8954305,20 11,19.1045695 11,18 L11,14 L12,14 L12,13 C12,11.3431458 13.3431458,10 15,10 C16.6568542,10 18,11.3431458 18,13 L18,14 Z" opacity=".2"/>
  </g>
</svg>
